<svg xmlns="http://www.w3.org/2000/svg" xmlns:xlink="http://www.w3.org/1999/xlink" width="200" zoomAndPan="magnify" viewBox="0 0 150 44.999999" height="60" preserveAspectRatio="xMidYMid meet" version="1.0"><defs><g/></defs><g fill="#ffaa00" fill-opacity="1"><g transform="translate(4.500001, 29.129293)"><g><path d="M 2.703125 -17.453125 L 6.796875 -17.453125 C 9.722656 -17.453125 12.003906 -16.78125 13.640625 -15.4375 C 14.847656 -14.457031 15.738281 -13.472656 16.3125 -12.484375 L 17.328125 -12.484375 C 18.179688 -11.015625 18.609375 -9.742188 18.609375 -8.671875 L 18.609375 -8.53125 C 18.609375 -8.507812 18.5625 -8.4375 18.46875 -8.3125 L 18.109375 -8.375 L 17.53125 -8.375 L 17.53125 -8.03125 C 17.53125 -7.925781 17.484375 -7.875 17.390625 -7.875 L 16.59375 -7.875 L 16.59375 -7.3125 L 17.390625 -7.3125 C 17.484375 -7.289062 17.53125 -7.238281 17.53125 -7.15625 L 17.53125 -7.015625 C 17.53125 -5.972656 17.125 -4.601562 16.3125 -2.90625 C 16.207031 -2.894531 16.15625 -2.847656 16.15625 -2.765625 L 16.15625 -2.703125 L 17.53125 -2.703125 C 17.625 -2.679688 17.671875 -2.628906 17.671875 -2.546875 C 17.515625 -2.453125 17.375 -2.40625 17.25 -2.40625 L 16.015625 -2.40625 L 14.9375 -1.109375 L 13.578125 -1.109375 C 12.847656 -1.109375 12.484375 -0.988281 12.484375 -0.75 L 12.484375 -0.6875 L 14.359375 -0.6875 C 14.453125 -0.664062 14.5 -0.613281 14.5 -0.53125 C 14.425781 -0.53125 14.140625 -0.316406 13.640625 0.109375 C 11.828125 1.410156 10.078125 2.0625 8.390625 2.0625 L 0.453125 2.0625 L 0.453125 -0.53125 C 0.453125 -0.632812 0.40625 -0.6875 0.3125 -0.6875 L 0.171875 -0.6875 C -1.078125 -0.6875 -1.703125 -0.753906 -1.703125 -0.890625 L -1.703125 -0.96875 C -1.679688 -1.0625 -1.628906 -1.109375 -1.546875 -1.109375 L 0.3125 -1.109375 C 0.40625 -1.109375 0.453125 -1.15625 0.453125 -1.25 L 0.453125 -2.40625 C 0.773438 -2.40625 1.257812 -2.425781 1.90625 -2.46875 L 1.90625 -2.625 C 1.25 -2.675781 0.789062 -2.703125 0.53125 -2.703125 L 0.453125 -2.828125 L 0.453125 -7.078125 C 0.453125 -7.148438 0.382812 -7.226562 0.25 -7.3125 L -0.40625 -7.3125 C -0.5 -7.3125 -0.546875 -7.351562 -0.546875 -7.4375 L -0.546875 -7.734375 C -0.546875 -7.847656 -0.351562 -7.921875 0.03125 -7.953125 L 0.171875 -7.875 L 0.6875 -8.3125 C 1.300781 -8.3125 1.609375 -8.382812 1.609375 -8.53125 L 1.609375 -12.34375 C 1.609375 -12.457031 1.222656 -12.554688 0.453125 -12.640625 L 0.453125 -17.25 L 0.53125 -17.390625 C 1.488281 -17.429688 2.210938 -17.453125 2.703125 -17.453125 Z M 5.65625 -13.421875 L 5.65625 -12.640625 C 5.664062 -12.535156 5.707031 -12.484375 5.78125 -12.484375 L 6.65625 -12.484375 C 6.75 -12.472656 6.796875 -12.425781 6.796875 -12.34375 L 6.796875 -8.53125 C 6.796875 -8.488281 6.722656 -8.414062 6.578125 -8.3125 L 6.21875 -8.375 L 5.78125 -8.375 L 5.5 -7.875 L 4.859375 -7.875 C 4.765625 -7.863281 4.71875 -7.816406 4.71875 -7.734375 L 4.71875 -7.3125 L 5.5 -7.3125 C 5.539062 -7.3125 5.613281 -7.234375 5.71875 -7.078125 L 5.65625 -6.71875 L 5.65625 -3.921875 C 5.65625 -3.816406 5.675781 -3.71875 5.71875 -3.625 C 5.675781 -3.539062 5.65625 -3.445312 5.65625 -3.34375 L 5.65625 -3.0625 L 5.71875 -2.703125 L 6.578125 -2.703125 C 6.691406 -2.703125 6.789062 -2.675781 6.875 -2.625 C 6.957031 -2.675781 7.050781 -2.703125 7.15625 -2.703125 L 7.234375 -2.546875 L 6.953125 -2.40625 C 6.847656 -2.40625 6.796875 -2.425781 6.796875 -2.46875 L 6.296875 -2.40625 L 5.71875 -2.40625 L 5.65625 -2.046875 L 5.65625 -1.90625 C 5.664062 -1.800781 5.707031 -1.75 5.78125 -1.75 L 7.3125 -1.75 C 7.769531 -1.75 8.535156 -1.96875 9.609375 -2.40625 C 10.328125 -2.445312 10.851562 -2.46875 11.1875 -2.46875 L 11.265625 -2.625 C 10.785156 -2.675781 10.425781 -2.703125 10.1875 -2.703125 L 10.046875 -2.703125 L 10.046875 -2.828125 C 10.929688 -3.472656 11.578125 -4.414062 11.984375 -5.65625 L 12.34375 -7.15625 L 12.125 -7.3125 L 11.484375 -7.3125 C 11.390625 -7.3125 11.34375 -7.351562 11.34375 -7.4375 L 11.34375 -7.734375 C 11.34375 -7.804688 11.414062 -7.878906 11.5625 -7.953125 C 11.601562 -7.953125 11.625 -7.925781 11.625 -7.875 C 12.070312 -7.875 12.359375 -8.019531 12.484375 -8.3125 L 12.921875 -8.3125 L 13.421875 -8.375 L 13.421875 -8.53125 C 13.242188 -9.945312 12.550781 -11.242188 11.34375 -12.421875 C 10.289062 -12.503906 9.640625 -12.671875 9.390625 -12.921875 C 8.617188 -13.359375 7.96875 -13.578125 7.4375 -13.578125 L 5.78125 -13.578125 C 5.695312 -13.554688 5.65625 -13.503906 5.65625 -13.421875 Z M 0.109375 -12.484375 L 0.25 -12.484375 C 0.34375 -12.472656 0.390625 -12.425781 0.390625 -12.34375 L 0.390625 -12.203125 C 0.390625 -12.117188 0.269531 -12.046875 0.03125 -11.984375 L -0.046875 -12.125 L -0.046875 -12.34375 C -0.0234375 -12.4375 0.0234375 -12.484375 0.109375 -12.484375 Z M 10.328125 -8.3125 L 11.125 -8.3125 C 11.21875 -8.300781 11.265625 -8.253906 11.265625 -8.171875 L 11.265625 -8.09375 C 11.265625 -8 11.21875 -7.953125 11.125 -7.953125 L 10.46875 -7.953125 C 10.375 -7.953125 10.328125 -8 10.328125 -8.09375 Z M -1.203125 -7.953125 L -1.046875 -7.953125 C -0.953125 -7.941406 -0.90625 -7.894531 -0.90625 -7.8125 L -0.90625 -7.4375 C -0.90625 -7.351562 -0.953125 -7.3125 -1.046875 -7.3125 L -1.34375 -7.3125 L -1.34375 -7.8125 C -1.320312 -7.90625 -1.273438 -7.953125 -1.203125 -7.953125 Z M -1.203125 -7.953125 "/></g></g><g transform="translate(23.272378, 29.129293)"><g><path d="M 1.796875 -17.453125 C 1.890625 -17.453125 1.9375 -17.429688 1.9375 -17.390625 C 2.65625 -17.429688 3.1875 -17.453125 3.53125 -17.453125 L 8.5625 -17.453125 C 10.382812 -17.453125 11.609375 -17.285156 12.234375 -16.953125 C 12.660156 -16.828125 12.925781 -16.6875 13.03125 -16.53125 C 12.976562 -16.4375 12.953125 -16.335938 12.953125 -16.234375 C 13.703125 -15.878906 14.351562 -15.085938 14.90625 -13.859375 C 15.238281 -12.835938 15.40625 -12.070312 15.40625 -11.5625 C 15.40625 -11.382812 15.335938 -10.804688 15.203125 -9.828125 C 15.484375 -9.828125 15.625 -9.773438 15.625 -9.671875 C 15.070312 -8.179688 14.207031 -7.078125 13.03125 -6.359375 L 11.953125 -5.9375 L 11.953125 -5.859375 C 12.066406 -5.753906 12.332031 -5.367188 12.75 -4.703125 C 12.59375 -4.609375 12.472656 -4.5625 12.390625 -4.5625 L 12.453125 -4.421875 L 12.453125 -4.34375 C 11.585938 -4.300781 11.007812 -4.28125 10.71875 -4.28125 L 10.71875 -4.203125 C 10.738281 -4.109375 10.789062 -4.0625 10.875 -4.0625 L 12.671875 -4.0625 L 13.3125 -3.265625 C 13.789062 -3.265625 14.101562 -3.023438 14.25 -2.546875 L 14.25 -2.46875 C 14.007812 -2.46875 13.890625 -2.421875 13.890625 -2.328125 C 15.378906 -0.179688 16.125 0.921875 16.125 0.984375 C 15.9375 1.023438 15.84375 1.070312 15.84375 1.125 C 16.175781 1.625 16.34375 1.914062 16.34375 2 L 16.203125 2.0625 L 12.59375 2.0625 C 12.1875 2.0625 11.539062 2.039062 10.65625 2 C 10.269531 1.445312 10.078125 1.15625 10.078125 1.125 C 10.160156 1.070312 10.28125 1.046875 10.4375 1.046875 L 10.4375 0.984375 C 9.039062 -1.128906 8.34375 -2.28125 8.34375 -2.46875 L 8.640625 -2.46875 L 8.640625 -2.625 C 8.484375 -3.09375 8.195312 -3.328125 7.78125 -3.328125 C 7.40625 -3.816406 7.113281 -4.0625 6.90625 -4.0625 L 5.609375 -4.0625 L 5.609375 -3.703125 C 5.609375 -3.648438 5.585938 -3.625 5.546875 -3.625 L 5.609375 -3.484375 L 5.609375 -0.171875 L 6.40625 -0.171875 C 6.5 -0.160156 6.546875 -0.109375 6.546875 -0.015625 C 6.546875 0.0664062 6.5 0.109375 6.40625 0.109375 L 5.609375 0.109375 C 5.609375 0.359375 5.585938 0.484375 5.546875 0.484375 L 5.609375 0.625 L 5.609375 1.484375 C 5.609375 1.585938 5.585938 1.6875 5.546875 1.78125 C 5.585938 1.863281 5.609375 1.9375 5.609375 2 L 5.46875 2.0625 L 2.515625 2.0625 C 2.035156 2.0625 1.3125 2.039062 0.34375 2 L 0.34375 0.265625 C 0.363281 0.160156 0.414062 0.109375 0.5 0.109375 L 1.28125 0.109375 L 1.28125 -0.09375 L 0.5 -0.09375 C 0.394531 -0.09375 0.34375 -0.144531 0.34375 -0.25 L 0.34375 -3.984375 L -0.015625 -4.0625 L -1.4375 -4.0625 C -1.539062 -4.0625 -1.59375 -4.109375 -1.59375 -4.203125 L -1.4375 -4.28125 C -0.25 -4.300781 0.34375 -4.347656 0.34375 -4.421875 C 0.34375 -4.566406 0.394531 -4.640625 0.5 -4.640625 C 0.59375 -4.585938 0.664062 -4.5625 0.71875 -4.5625 L 0.78125 -4.703125 L 0.78125 -9.609375 C 0.800781 -9.703125 0.847656 -9.75 0.921875 -9.75 L 1.28125 -9.75 L 1.359375 -10.1875 C 1.265625 -10.238281 1.191406 -10.265625 1.140625 -10.265625 C 0.722656 -10.210938 0.484375 -10.1875 0.421875 -10.1875 C 0.421875 -10.570312 0.226562 -10.765625 -0.15625 -10.765625 L -0.15625 -11.125 L 0.34375 -11.40625 L 0.34375 -16.234375 L 0.78125 -16.53125 L 0.78125 -17.25 C 0.800781 -17.34375 0.847656 -17.390625 0.921875 -17.390625 L 1.4375 -17.390625 C 1.59375 -17.390625 1.710938 -17.410156 1.796875 -17.453125 Z M 5.609375 -13.640625 C 5.609375 -13.597656 5.585938 -13.578125 5.546875 -13.578125 C 5.585938 -13.085938 5.609375 -12.722656 5.609375 -12.484375 L 5.609375 -12.046875 C 5.609375 -12.003906 5.585938 -11.984375 5.546875 -11.984375 L 5.609375 -11.84375 L 5.609375 -11.765625 C 5.609375 -11.335938 5.414062 -11.125 5.03125 -11.125 L 5.03125 -10.6875 C 5.414062 -10.65625 5.609375 -10.582031 5.609375 -10.46875 L 5.546875 -10.46875 C 5.585938 -10.375 5.609375 -10.304688 5.609375 -10.265625 L 7.34375 -10.265625 L 7.34375 -10.109375 L 6.6875 -10.109375 L 6.40625 -9.75 L 6.046875 -9.75 L 6.046875 -9.03125 L 8.265625 -9.03125 C 9.242188 -9.03125 9.898438 -9.269531 10.234375 -9.75 C 10.703125 -9.75 10.9375 -9.921875 10.9375 -10.265625 L 10.296875 -10.265625 L 10.15625 -10.328125 C 10.25 -10.660156 10.296875 -10.945312 10.296875 -11.1875 L 10.296875 -11.765625 C 10.296875 -12.265625 9.863281 -12.816406 9 -13.421875 C 8.894531 -13.523438 8.414062 -13.597656 7.5625 -13.640625 L 7.40625 -13.578125 L 7.265625 -13.640625 C 7.222656 -13.640625 7.203125 -13.617188 7.203125 -13.578125 C 7.035156 -13.617188 6.9375 -13.640625 6.90625 -13.640625 C 6.488281 -13.597656 6.25 -13.578125 6.1875 -13.578125 C 5.914062 -13.617188 5.722656 -13.640625 5.609375 -13.640625 Z M 1.515625 -10.1875 L 1.515625 -10.109375 L 1.640625 -10.109375 L 1.640625 -10.1875 Z M 1.875 -10.1875 L 1.875 -10.109375 L 2 -10.109375 L 2 -10.1875 Z M 15.484375 -10.265625 L 15.703125 -10.265625 L 15.703125 -10.109375 L 15.484375 -10.109375 Z M 15.984375 -10.265625 L 16.203125 -10.265625 L 16.203125 -10.109375 L 15.984375 -10.109375 Z M 16.34375 -10.265625 L 17 -10.265625 L 17 -10.109375 L 16.34375 -10.109375 Z M 5.828125 -4.5625 L 5.6875 -4.640625 C 5.6875 -4.546875 5.640625 -4.5 5.546875 -4.5 C 5.585938 -4.40625 5.609375 -4.332031 5.609375 -4.28125 C 6.085938 -4.320312 6.445312 -4.34375 6.6875 -4.34375 L 6.765625 -4.34375 L 6.90625 -4.28125 L 7.203125 -4.78125 C 7.003906 -5.207031 6.882812 -5.421875 6.84375 -5.421875 L 6.1875 -5.421875 C 6.09375 -5.421875 6.019531 -5.132812 5.96875 -4.5625 Z M 3.65625 -4.28125 L 3.65625 -4.203125 C 3.675781 -4.109375 3.726562 -4.0625 3.8125 -4.0625 L 5.109375 -4.0625 C 5.203125 -4.0625 5.25 -4.109375 5.25 -4.203125 L 5.25 -4.28125 Z M 9.4375 1.125 L 9.5625 1.125 C 9.5625 1.207031 9.613281 1.300781 9.71875 1.40625 L 9.71875 1.5625 C 9.65625 1.550781 9.5625 1.429688 9.4375 1.203125 Z M 9.9375 1.84375 L 10 1.84375 L 10 2 L 9.9375 2 Z M 9.9375 1.84375 "/></g></g><g transform="translate(39.675631, 29.129293)"><g><path d="M 10.953125 -17.421875 C 12.609375 -17.421875 14.003906 -17.070312 15.140625 -16.375 C 15.054688 -16.332031 14.96875 -16.3125 14.875 -16.3125 L 14.875 -16.171875 C 15.039062 -16.171875 15.6875 -15.726562 16.8125 -14.84375 C 17.082031 -14.84375 17.363281 -14.753906 17.65625 -14.578125 L 18.421875 -14.578125 L 18.765625 -14.5 L 18.765625 -14.421875 C 18.765625 -14.328125 18.71875 -14.28125 18.625 -14.28125 L 18.28125 -14.28125 C 18.238281 -14.28125 18.21875 -14.304688 18.21875 -14.359375 C 18.132812 -14.304688 18.015625 -14.28125 17.859375 -14.28125 L 17.859375 -14.21875 C 18.921875 -13.039062 19.710938 -11.457031 20.234375 -9.46875 L 20.03125 -9.328125 L 18.359375 -9.328125 L 18.359375 -9.265625 C 19.035156 -9.265625 19.429688 -9.242188 19.546875 -9.203125 C 19.617188 -9.242188 19.734375 -9.265625 19.890625 -9.265625 L 20.03125 -9.265625 C 20.21875 -9.265625 20.3125 -8.820312 20.3125 -7.9375 C 20.320312 -7.84375 20.363281 -7.796875 20.4375 -7.796875 L 21.140625 -7.796875 C 21.179688 -7.796875 21.203125 -7.773438 21.203125 -7.734375 L 21.359375 -7.796875 L 21.421875 -7.796875 C 21.703125 -7.765625 21.84375 -7.695312 21.84375 -7.59375 C 21.84375 -6.039062 21.398438 -4.476562 20.515625 -2.90625 L 20.375 -2.84375 L 19.046875 -2.84375 L 18.765625 -2.640625 L 18.078125 -2.640625 C 17.984375 -2.617188 17.9375 -2.570312 17.9375 -2.5 C 18.445312 -2.5 18.703125 -2.472656 18.703125 -2.421875 C 17.617188 -0.640625 15.941406 0.679688 13.671875 1.546875 C 12.566406 1.828125 11.566406 1.96875 10.671875 1.96875 L 9.90625 1.96875 C 9.363281 1.96875 8.992188 1.921875 8.796875 1.828125 C 8.703125 1.878906 8.628906 1.90625 8.578125 1.90625 C 6.535156 1.550781 4.929688 0.875 3.765625 -0.125 C 2.867188 -0.882812 2.148438 -1.648438 1.609375 -2.421875 C 1.523438 -2.472656 1.429688 -2.5 1.328125 -2.5 L 0.703125 -2.5 L 0.703125 -2.640625 L 1.390625 -2.640625 C 1.390625 -2.773438 1.441406 -2.84375 1.546875 -2.84375 L 2.4375 -2.84375 L 2.796875 -2.90625 C 2.066406 -4.28125 1.671875 -5.539062 1.609375 -6.6875 L 1.609375 -6.890625 L 1.671875 -7.03125 C 1.710938 -7.03125 1.734375 -7.003906 1.734375 -6.953125 C 2.441406 -7.003906 2.957031 -7.03125 3.28125 -7.03125 L 4.328125 -7.03125 L 4.328125 -7.109375 C 4.328125 -7.203125 4.28125 -7.25 4.1875 -7.25 L 1.671875 -7.25 C 1.617188 -7.25 1.503906 -7.410156 1.328125 -7.734375 L 0.140625 -7.734375 C 0.046875 -7.734375 0 -7.78125 0 -7.875 C 0 -7.957031 0.1875 -8.023438 0.5625 -8.078125 L 0.5625 -8.359375 C 0.507812 -8.359375 0.4375 -8.378906 0.34375 -8.421875 C 0.257812 -8.378906 0.191406 -8.359375 0.140625 -8.359375 C 0.0976562 -8.453125 0.078125 -8.523438 0.078125 -8.578125 C 0.210938 -10.179688 0.8125 -11.800781 1.875 -13.4375 C 2.289062 -14 2.664062 -14.28125 3 -14.28125 C 3.601562 -14.28125 3.90625 -14.351562 3.90625 -14.5 C 3.75 -14.59375 3.613281 -14.640625 3.5 -14.640625 L 3.421875 -14.640625 L 3.0625 -14.578125 L 3 -14.703125 L 3.0625 -14.84375 C 2.882812 -14.84375 2.796875 -14.890625 2.796875 -14.984375 C 3.140625 -15.285156 3.789062 -15.726562 4.75 -16.3125 L 5.515625 -16.3125 C 6.753906 -17.050781 8.566406 -17.421875 10.953125 -17.421875 Z M 5.15625 -8.703125 L 5.15625 -8.578125 L 5.59375 -8.28125 L 5.59375 -8.140625 C 5.59375 -8.046875 5.539062 -8 5.4375 -8 L 5.09375 -8 L 5.09375 -7.796875 L 6.34375 -7.796875 C 6.425781 -7.796875 6.5 -7.632812 6.5625 -7.3125 C 7.5625 -7.269531 8.304688 -7.25 8.796875 -7.25 L 9.34375 -7.25 L 9.34375 -7.109375 C 9.34375 -7.003906 9.296875 -6.953125 9.203125 -6.953125 C 9.117188 -7.003906 9.050781 -7.03125 9 -7.03125 C 8.957031 -7.03125 8.9375 -7.003906 8.9375 -6.953125 L 8.578125 -7.03125 C 8.410156 -7.03125 7.757812 -7.003906 6.625 -6.953125 L 6.625 -6.609375 C 6.851562 -5.472656 7.4375 -4.445312 8.375 -3.53125 C 8.882812 -3.175781 9.140625 -2.96875 9.140625 -2.90625 L 9 -2.84375 L 8.03125 -2.84375 L 8.09375 -2.703125 L 8.09375 -2.640625 L 7.671875 -2.640625 L 7.671875 -2.5 L 8.515625 -2.5 C 9.347656 -2.257812 9.90625 -2.140625 10.1875 -2.140625 C 10.457031 -2.140625 10.898438 -2.210938 11.515625 -2.359375 C 11.515625 -2.453125 11.46875 -2.5 11.375 -2.5 L 11.03125 -2.5 L 11.03125 -2.640625 L 11.78125 -2.640625 C 11.832031 -2.640625 12.160156 -2.707031 12.765625 -2.84375 L 13.46875 -2.84375 C 13.570312 -2.84375 13.664062 -2.863281 13.75 -2.90625 C 13.832031 -2.863281 13.898438 -2.84375 13.953125 -2.84375 C 14.867188 -3.238281 15.679688 -4.097656 16.390625 -5.421875 C 16.671875 -6.359375 16.8125 -6.894531 16.8125 -7.03125 L 16.8125 -7.59375 C 16.8125 -7.664062 16.582031 -7.734375 16.125 -7.796875 L 15.984375 -7.734375 L 15.5 -7.734375 C 15.300781 -7.734375 15.203125 -8.195312 15.203125 -9.125 L 14.875 -9.203125 L 12.484375 -9.203125 L 12.484375 -9.328125 C 13.191406 -9.378906 13.707031 -9.40625 14.03125 -9.40625 L 15.0625 -9.40625 L 15.0625 -9.46875 C 14.625 -10.707031 13.929688 -11.660156 12.984375 -12.328125 C 11.921875 -12.984375 11.054688 -13.3125 10.390625 -13.3125 C 8.453125 -13.3125 6.875 -12.3125 5.65625 -10.3125 C 5.320312 -9.488281 5.15625 -8.953125 5.15625 -8.703125 Z M 0.34375 -7.25 L 1.109375 -7.25 C 1.203125 -7.226562 1.25 -7.179688 1.25 -7.109375 L 1.109375 -7.03125 L 0.34375 -7.03125 Z M 17.515625 -6.953125 L 17.453125 -6.8125 L 17.453125 -6.75 L 17.515625 -6.75 C 17.515625 -6.84375 17.5625 -6.890625 17.65625 -6.890625 L 17.65625 -6.953125 Z M 8.9375 -5.921875 L 9 -5.921875 C 9.09375 -5.898438 9.140625 -5.851562 9.140625 -5.78125 L 9.140625 -5.5625 C 9.140625 -5.46875 9.09375 -5.421875 9 -5.421875 L 8.9375 -5.421875 C 8.84375 -5.421875 8.796875 -5.46875 8.796875 -5.5625 L 8.796875 -5.78125 C 8.804688 -5.875 8.851562 -5.921875 8.9375 -5.921875 Z M 0.765625 -5.15625 L 1.1875 -5.15625 L 1.25 -4.796875 L 1.046875 -4.65625 L 0.84375 -4.65625 C 0.75 -4.65625 0.675781 -4.796875 0.625 -5.078125 Z M 0.765625 -5.15625 "/></g></g><g transform="translate(60.264689, 29.129293)"><g><path d="M 1.671875 -17.453125 C 1.929688 -17.410156 2.175781 -17.390625 2.40625 -17.390625 C 2.625 -17.390625 2.863281 -17.410156 3.125 -17.453125 C 3.226562 -17.453125 3.320312 -17.429688 3.40625 -17.390625 C 4.414062 -17.429688 5.234375 -17.453125 5.859375 -17.453125 L 8.734375 -17.453125 C 11.097656 -17.453125 12.757812 -16.898438 13.71875 -15.796875 L 13.578125 -15.734375 L 13.078125 -15.734375 L 13.078125 -15.59375 C 13.085938 -15.488281 13.132812 -15.4375 13.21875 -15.4375 L 14.078125 -15.4375 C 14.710938 -14.882812 15.21875 -13.828125 15.59375 -12.265625 L 16.390625 -12.265625 C 16.484375 -12.253906 16.53125 -12.207031 16.53125 -12.125 C 16.375 -12.03125 16.226562 -11.984375 16.09375 -11.984375 L 15.953125 -12.046875 C 15.660156 -12.003906 15.515625 -11.957031 15.515625 -11.90625 C 15.566406 -11.8125 15.59375 -11.738281 15.59375 -11.6875 L 15.375 -11.546875 L 14.875 -11.546875 L 14.875 -10.890625 C 14.875 -10.378906 14.609375 -9.566406 14.078125 -8.453125 C 13.984375 -8.429688 13.9375 -8.382812 13.9375 -8.3125 L 15.734375 -8.3125 L 15.734375 -8.09375 L 14.4375 -8.09375 C 14.332031 -8.09375 14.234375 -8.066406 14.140625 -8.015625 C 14.066406 -8.066406 13.972656 -8.09375 13.859375 -8.09375 C 13.710938 -7.945312 13.453125 -7.851562 13.078125 -7.8125 C 12.835938 -7.582031 12.71875 -7.410156 12.71875 -7.296875 C 12.800781 -7.285156 12.84375 -7.234375 12.84375 -7.140625 C 12.113281 -6.429688 11.082031 -5.976562 9.75 -5.78125 L 8.890625 -5.78125 C 8.265625 -5.78125 7.617188 -5.757812 6.953125 -5.71875 C 6.679688 -5.757812 6.484375 -5.78125 6.359375 -5.78125 C 6.035156 -5.738281 5.773438 -5.71875 5.578125 -5.71875 L 5.421875 -5.78125 C 5.335938 -5.738281 5.242188 -5.71875 5.140625 -5.71875 L 5.140625 -5.359375 C 5.140625 -5.304688 5.113281 -5.28125 5.0625 -5.28125 C 5.0625 -4.9375 5.300781 -4.765625 5.78125 -4.765625 L 5.78125 1.34375 C 5.78125 1.582031 5.878906 1.703125 6.078125 1.703125 L 6.078125 1.9375 C 6.078125 2.03125 6.03125 2.078125 5.9375 2.078125 L 2.828125 2.078125 C 2.421875 2.078125 1.820312 2.050781 1.03125 2 C 1.03125 2.050781 1.003906 2.078125 0.953125 2.078125 C 0.941406 1.921875 0.800781 1.753906 0.53125 1.578125 L 0.53125 -4.84375 L 0.171875 -4.921875 L -0.109375 -4.921875 L -0.109375 -7.078125 L -0.625 -7.375 L -0.625 -7.734375 L 0.015625 -8.09375 C 0.898438 -8.132812 1.453125 -8.15625 1.671875 -8.15625 L 1.671875 -8.234375 C 1.535156 -8.234375 1.367188 -8.257812 1.171875 -8.3125 L 1.03125 -8.234375 C 0.769531 -8.285156 0.550781 -8.3125 0.375 -8.3125 L 0.015625 -8.3125 C -0.0664062 -8.3125 -0.109375 -8.359375 -0.109375 -8.453125 L -0.109375 -11.546875 L 0.171875 -11.546875 C 0.453125 -11.546875 0.59375 -11.691406 0.59375 -11.984375 C 0.8125 -11.984375 0.957031 -12.003906 1.03125 -12.046875 C 1.113281 -12.003906 1.207031 -11.984375 1.3125 -11.984375 C 1.414062 -11.984375 1.46875 -12.03125 1.46875 -12.125 C 1.46875 -12.21875 1.414062 -12.265625 1.3125 -12.265625 L 0.671875 -12.265625 C 0.578125 -12.265625 0.53125 -12.335938 0.53125 -12.484375 C 0.53125 -13.078125 0.550781 -13.628906 0.59375 -14.140625 C 0.550781 -14.515625 0.53125 -14.925781 0.53125 -15.375 L 0.375 -15.4375 L -0.34375 -15.4375 C -0.4375 -15.4375 -0.484375 -15.488281 -0.484375 -15.59375 C -0.460938 -15.6875 -0.414062 -15.734375 -0.34375 -15.734375 L 0.375 -15.734375 C 0.488281 -15.734375 0.5625 -15.851562 0.59375 -16.09375 L 0.53125 -16.453125 C 0.5625 -17.078125 0.632812 -17.390625 0.75 -17.390625 L 1.03125 -17.390625 C 1.28125 -17.390625 1.492188 -17.410156 1.671875 -17.453125 Z M -1.125 -15.734375 L -0.984375 -15.734375 C -0.890625 -15.710938 -0.84375 -15.664062 -0.84375 -15.59375 L -0.84375 -15.4375 L -1.125 -15.4375 C -1.226562 -15.4375 -1.28125 -15.488281 -1.28125 -15.59375 C -1.257812 -15.6875 -1.207031 -15.734375 -1.125 -15.734375 Z M 5.78125 -13.640625 L 5.78125 -12.421875 C 5.800781 -12.316406 5.851562 -12.265625 5.9375 -12.265625 L 6.578125 -12.265625 C 6.671875 -12.253906 6.71875 -12.207031 6.71875 -12.125 C 6.71875 -12.03125 6.671875 -11.984375 6.578125 -11.984375 C 6.472656 -11.984375 6.378906 -12.003906 6.296875 -12.046875 C 6.210938 -12.003906 6.117188 -11.984375 6.015625 -11.984375 L 5.859375 -12.046875 C 5.796875 -11.710938 5.726562 -11.546875 5.65625 -11.546875 L 5.140625 -11.546875 C 5.140625 -11.273438 5.113281 -11.109375 5.0625 -11.046875 C 5.113281 -10.785156 5.140625 -10.566406 5.140625 -10.390625 L 5.140625 -10.25 C 5.140625 -10.144531 5.113281 -10.050781 5.0625 -9.96875 C 5.113281 -9.875 5.140625 -9.773438 5.140625 -9.671875 L 5.140625 -9.390625 L 7.734375 -9.390625 C 8.734375 -9.390625 9.429688 -9.914062 9.828125 -10.96875 C 9.828125 -11.269531 9.875 -11.488281 9.96875 -11.625 L 10.328125 -11.546875 L 10.40625 -11.546875 C 10.5 -11.546875 10.546875 -11.691406 10.546875 -11.984375 L 11.265625 -11.984375 C 11.265625 -12.023438 11.289062 -12.097656 11.34375 -12.203125 L 11.1875 -12.265625 L 10.40625 -12.265625 C 9.9375 -13.179688 9.144531 -13.640625 8.03125 -13.640625 Z M 9.328125 -12.203125 L 10.109375 -12.203125 L 10.109375 -12.046875 L 9.6875 -12.046875 L 9.328125 -12.125 Z M 9.328125 -12.203125 "/></g></g><g transform="translate(76.041135, 29.129293)"><g><path d="M 1.796875 -17.453125 L 16.609375 -17.453125 L 16.609375 -17.25 L 15.828125 -17.25 C 15.648438 -17.164062 15.191406 -16.375 14.453125 -14.875 C 14.796875 -14.875 14.96875 -14.828125 14.96875 -14.734375 C 13.800781 -12.367188 13.003906 -10.90625 12.578125 -10.34375 C 12.117188 -10.34375 11.878906 -10.316406 11.859375 -10.265625 C 11.785156 -10.316406 11.691406 -10.34375 11.578125 -10.34375 L 11.4375 -10.34375 C 11.4375 -10.3125 11.484375 -10.238281 11.578125 -10.125 L 11.578125 -10.046875 L 11.515625 -9.90625 L 12.015625 -9.828125 C 12.148438 -9.828125 12.21875 -9.851562 12.21875 -9.90625 L 12.578125 -9.828125 L 13.671875 -9.828125 C 13.765625 -9.816406 13.8125 -9.773438 13.8125 -9.703125 L 13.671875 -9.625 L 12.953125 -9.625 C 12.773438 -9.625 12.554688 -9.597656 12.296875 -9.546875 C 12.234375 -9.597656 12.066406 -9.625 11.796875 -9.625 C 11.460938 -9.1875 10.695312 -7.769531 9.5 -5.375 L 9.625 -5.296875 L 10.359375 -5.296875 C 10.453125 -5.285156 10.5 -5.238281 10.5 -5.15625 C 10.46875 -5.019531 10.28125 -4.953125 9.9375 -4.953125 L 9.34375 -4.953125 L 8.921875 -4.515625 L 7.984375 -4.515625 C 7.859375 -4.328125 7.566406 -4.234375 7.109375 -4.234375 L 7.546875 -3.9375 C 6.992188 -2.863281 6.660156 -2.164062 6.546875 -1.84375 L 7.265625 -1.84375 L 7.703125 -1.78125 C 7.742188 -1.78125 7.765625 -1.800781 7.765625 -1.84375 L 8.265625 -1.78125 C 8.554688 -1.78125 8.703125 -1.800781 8.703125 -1.84375 L 9.421875 -1.78125 L 12.953125 -1.78125 C 13.273438 -1.78125 13.800781 -1.800781 14.53125 -1.84375 C 14.664062 -1.507812 14.757812 -1.34375 14.8125 -1.34375 L 15.671875 -1.34375 C 15.773438 -1.332031 15.828125 -1.285156 15.828125 -1.203125 L 15.828125 1.09375 L 15.75 1.953125 C 15.269531 2.003906 10.140625 2.003906 0.359375 1.953125 L 0.15625 1.953125 C 0.0507812 1.953125 0 1.90625 0 1.8125 C 0.789062 0.394531 1.316406 -0.632812 1.578125 -1.28125 L 1.578125 -1.34375 L 1.515625 -1.34375 L 0.859375 -1.421875 C 0.765625 -1.367188 0.691406 -1.34375 0.640625 -1.34375 L 0.578125 -1.5 L 1.875 -3.859375 L 1.875 -4.078125 L 1.515625 -4.078125 L 1.515625 -4.234375 L 1.9375 -4.234375 L 2.375 -4.59375 L 3.3125 -4.59375 C 3.34375 -4.59375 3.484375 -4.734375 3.734375 -5.015625 L 4.671875 -5.015625 C 4.773438 -5.015625 4.828125 -5.0625 4.828125 -5.15625 C 4.828125 -5.25 4.773438 -5.296875 4.671875 -5.296875 L 3.953125 -5.296875 L 3.8125 -5.375 L 6.046875 -9.546875 C 6.835938 -9.597656 7.4375 -9.625 7.84375 -9.625 L 7.984375 -9.625 C 8.078125 -9.625 8.125 -9.671875 8.125 -9.765625 L 8.125 -9.828125 L 8.046875 -9.828125 C 7.578125 -9.828125 6.859375 -9.851562 5.890625 -9.90625 L 5.890625 -9.984375 C 5.890625 -10.265625 6.273438 -10.40625 7.046875 -10.40625 L 8.703125 -13.4375 L 8.703125 -13.640625 L 2.796875 -13.640625 C 2.691406 -13.640625 2.597656 -13.664062 2.515625 -13.71875 C 2.460938 -13.71875 2.4375 -13.691406 2.4375 -13.640625 L 1.9375 -13.71875 L 1.4375 -13.71875 C 1.34375 -13.71875 1.296875 -13.765625 1.296875 -13.859375 L 1.296875 -14.734375 L 1.375 -14.875 C 0.9375 -14.875 0.71875 -14.96875 0.71875 -15.15625 L 0.78125 -15.59375 L 0.71875 -16.03125 L 0.78125 -16.453125 L 0.71875 -17.171875 L 0.859375 -17.25 L 1.515625 -17.25 Z M 1.140625 -15.09375 L 1.140625 -14.9375 L 1.21875 -14.9375 L 1.21875 -15.09375 Z M 0.359375 -14.734375 L 0.5 -14.734375 L 0.5 -13.796875 L 0.359375 -13.796875 Z M 1.9375 -14.296875 L 1.9375 -14.140625 C 2.03125 -14.140625 2.078125 -14.097656 2.078125 -14.015625 L 2.15625 -14.015625 L 2.15625 -14.140625 Z M 3.953125 -10.34375 L 4.59375 -10.34375 L 4.59375 -10.203125 L 3.953125 -10.203125 Z M 5.609375 -10.34375 L 5.75 -10.34375 L 5.75 -10.203125 L 5.609375 -10.203125 Z M 5.609375 -10.34375 "/></g></g><g transform="translate(92.030058, 29.129293)"><g><path d="M 10.953125 -17.421875 C 12.609375 -17.421875 14.003906 -17.070312 15.140625 -16.375 C 15.054688 -16.332031 14.96875 -16.3125 14.875 -16.3125 L 14.875 -16.171875 C 15.039062 -16.171875 15.6875 -15.726562 16.8125 -14.84375 C 17.082031 -14.84375 17.363281 -14.753906 17.65625 -14.578125 L 18.421875 -14.578125 L 18.765625 -14.5 L 18.765625 -14.421875 C 18.765625 -14.328125 18.71875 -14.28125 18.625 -14.28125 L 18.28125 -14.28125 C 18.238281 -14.28125 18.21875 -14.304688 18.21875 -14.359375 C 18.132812 -14.304688 18.015625 -14.28125 17.859375 -14.28125 L 17.859375 -14.21875 C 18.921875 -13.039062 19.710938 -11.457031 20.234375 -9.46875 L 20.03125 -9.328125 L 18.359375 -9.328125 L 18.359375 -9.265625 C 19.035156 -9.265625 19.429688 -9.242188 19.546875 -9.203125 C 19.617188 -9.242188 19.734375 -9.265625 19.890625 -9.265625 L 20.03125 -9.265625 C 20.21875 -9.265625 20.3125 -8.820312 20.3125 -7.9375 C 20.320312 -7.84375 20.363281 -7.796875 20.4375 -7.796875 L 21.140625 -7.796875 C 21.179688 -7.796875 21.203125 -7.773438 21.203125 -7.734375 L 21.359375 -7.796875 L 21.421875 -7.796875 C 21.703125 -7.765625 21.84375 -7.695312 21.84375 -7.59375 C 21.84375 -6.039062 21.398438 -4.476562 20.515625 -2.90625 L 20.375 -2.84375 L 19.046875 -2.84375 L 18.765625 -2.640625 L 18.078125 -2.640625 C 17.984375 -2.617188 17.9375 -2.570312 17.9375 -2.5 C 18.445312 -2.5 18.703125 -2.472656 18.703125 -2.421875 C 17.617188 -0.640625 15.941406 0.679688 13.671875 1.546875 C 12.566406 1.828125 11.566406 1.96875 10.671875 1.96875 L 9.90625 1.96875 C 9.363281 1.96875 8.992188 1.921875 8.796875 1.828125 C 8.703125 1.878906 8.628906 1.90625 8.578125 1.90625 C 6.535156 1.550781 4.929688 0.875 3.765625 -0.125 C 2.867188 -0.882812 2.148438 -1.648438 1.609375 -2.421875 C 1.523438 -2.472656 1.429688 -2.5 1.328125 -2.5 L 0.703125 -2.5 L 0.703125 -2.640625 L 1.390625 -2.640625 C 1.390625 -2.773438 1.441406 -2.84375 1.546875 -2.84375 L 2.4375 -2.84375 L 2.796875 -2.90625 C 2.066406 -4.28125 1.671875 -5.539062 1.609375 -6.6875 L 1.609375 -6.890625 L 1.671875 -7.03125 C 1.710938 -7.03125 1.734375 -7.003906 1.734375 -6.953125 C 2.441406 -7.003906 2.957031 -7.03125 3.28125 -7.03125 L 4.328125 -7.03125 L 4.328125 -7.109375 C 4.328125 -7.203125 4.28125 -7.25 4.1875 -7.25 L 1.671875 -7.25 C 1.617188 -7.25 1.503906 -7.410156 1.328125 -7.734375 L 0.140625 -7.734375 C 0.046875 -7.734375 0 -7.78125 0 -7.875 C 0 -7.957031 0.1875 -8.023438 0.5625 -8.078125 L 0.5625 -8.359375 C 0.507812 -8.359375 0.4375 -8.378906 0.34375 -8.421875 C 0.257812 -8.378906 0.191406 -8.359375 0.140625 -8.359375 C 0.0976562 -8.453125 0.078125 -8.523438 0.078125 -8.578125 C 0.210938 -10.179688 0.8125 -11.800781 1.875 -13.4375 C 2.289062 -14 2.664062 -14.28125 3 -14.28125 C 3.601562 -14.28125 3.90625 -14.351562 3.90625 -14.5 C 3.75 -14.59375 3.613281 -14.640625 3.5 -14.640625 L 3.421875 -14.640625 L 3.0625 -14.578125 L 3 -14.703125 L 3.0625 -14.84375 C 2.882812 -14.84375 2.796875 -14.890625 2.796875 -14.984375 C 3.140625 -15.285156 3.789062 -15.726562 4.75 -16.3125 L 5.515625 -16.3125 C 6.753906 -17.050781 8.566406 -17.421875 10.953125 -17.421875 Z M 5.15625 -8.703125 L 5.15625 -8.578125 L 5.59375 -8.28125 L 5.59375 -8.140625 C 5.59375 -8.046875 5.539062 -8 5.4375 -8 L 5.09375 -8 L 5.09375 -7.796875 L 6.34375 -7.796875 C 6.425781 -7.796875 6.5 -7.632812 6.5625 -7.3125 C 7.5625 -7.269531 8.304688 -7.25 8.796875 -7.25 L 9.34375 -7.25 L 9.34375 -7.109375 C 9.34375 -7.003906 9.296875 -6.953125 9.203125 -6.953125 C 9.117188 -7.003906 9.050781 -7.03125 9 -7.03125 C 8.957031 -7.03125 8.9375 -7.003906 8.9375 -6.953125 L 8.578125 -7.03125 C 8.410156 -7.03125 7.757812 -7.003906 6.625 -6.953125 L 6.625 -6.609375 C 6.851562 -5.472656 7.4375 -4.445312 8.375 -3.53125 C 8.882812 -3.175781 9.140625 -2.96875 9.140625 -2.90625 L 9 -2.84375 L 8.03125 -2.84375 L 8.09375 -2.703125 L 8.09375 -2.640625 L 7.671875 -2.640625 L 7.671875 -2.5 L 8.515625 -2.5 C 9.347656 -2.257812 9.90625 -2.140625 10.1875 -2.140625 C 10.457031 -2.140625 10.898438 -2.210938 11.515625 -2.359375 C 11.515625 -2.453125 11.46875 -2.5 11.375 -2.5 L 11.03125 -2.5 L 11.03125 -2.640625 L 11.78125 -2.640625 C 11.832031 -2.640625 12.160156 -2.707031 12.765625 -2.84375 L 13.46875 -2.84375 C 13.570312 -2.84375 13.664062 -2.863281 13.75 -2.90625 C 13.832031 -2.863281 13.898438 -2.84375 13.953125 -2.84375 C 14.867188 -3.238281 15.679688 -4.097656 16.390625 -5.421875 C 16.671875 -6.359375 16.8125 -6.894531 16.8125 -7.03125 L 16.8125 -7.59375 C 16.8125 -7.664062 16.582031 -7.734375 16.125 -7.796875 L 15.984375 -7.734375 L 15.5 -7.734375 C 15.300781 -7.734375 15.203125 -8.195312 15.203125 -9.125 L 14.875 -9.203125 L 12.484375 -9.203125 L 12.484375 -9.328125 C 13.191406 -9.378906 13.707031 -9.40625 14.03125 -9.40625 L 15.0625 -9.40625 L 15.0625 -9.46875 C 14.625 -10.707031 13.929688 -11.660156 12.984375 -12.328125 C 11.921875 -12.984375 11.054688 -13.3125 10.390625 -13.3125 C 8.453125 -13.3125 6.875 -12.3125 5.65625 -10.3125 C 5.320312 -9.488281 5.15625 -8.953125 5.15625 -8.703125 Z M 0.34375 -7.25 L 1.109375 -7.25 C 1.203125 -7.226562 1.25 -7.179688 1.25 -7.109375 L 1.109375 -7.03125 L 0.34375 -7.03125 Z M 17.515625 -6.953125 L 17.453125 -6.8125 L 17.453125 -6.75 L 17.515625 -6.75 C 17.515625 -6.84375 17.5625 -6.890625 17.65625 -6.890625 L 17.65625 -6.953125 Z M 8.9375 -5.921875 L 9 -5.921875 C 9.09375 -5.898438 9.140625 -5.851562 9.140625 -5.78125 L 9.140625 -5.5625 C 9.140625 -5.46875 9.09375 -5.421875 9 -5.421875 L 8.9375 -5.421875 C 8.84375 -5.421875 8.796875 -5.46875 8.796875 -5.5625 L 8.796875 -5.78125 C 8.804688 -5.875 8.851562 -5.921875 8.9375 -5.921875 Z M 0.765625 -5.15625 L 1.1875 -5.15625 L 1.25 -4.796875 L 1.046875 -4.65625 L 0.84375 -4.65625 C 0.75 -4.65625 0.675781 -4.796875 0.625 -5.078125 Z M 0.765625 -5.15625 "/></g></g><g transform="translate(112.619116, 29.129293)"><g><path d="M 2.40625 -17.421875 C 2.863281 -17.421875 3.914062 -17.398438 5.5625 -17.359375 C 7.238281 -14.898438 8.175781 -13.628906 8.375 -13.546875 C 8.550781 -13.546875 8.8125 -13.378906 9.15625 -13.046875 L 11.453125 -13.046875 C 11.546875 -13.035156 11.59375 -12.988281 11.59375 -12.90625 C 11.59375 -12.8125 11.546875 -12.765625 11.453125 -12.765625 L 11.234375 -12.765625 C 11.128906 -12.765625 11.035156 -12.785156 10.953125 -12.828125 C 10.867188 -12.785156 10.769531 -12.765625 10.65625 -12.765625 C 10.550781 -12.765625 10.457031 -12.785156 10.375 -12.828125 L 9.953125 -12.765625 L 9.515625 -12.765625 L 9.375 -12.828125 L 9.296875 -12.6875 C 9.867188 -11.9375 11.257812 -9.953125 13.46875 -6.734375 L 13.109375 -6.578125 C 13.765625 -5.585938 14.195312 -5.015625 14.40625 -4.859375 L 14.46875 -5.21875 L 14.46875 -5.59375 C 14.46875 -5.875 14.328125 -6.203125 14.046875 -6.578125 C 14.285156 -6.628906 14.40625 -6.679688 14.40625 -6.734375 C 14.164062 -7.097656 14.046875 -7.332031 14.046875 -7.4375 C 14.128906 -7.488281 14.195312 -7.515625 14.25 -7.515625 C 14.113281 -7.691406 14.046875 -7.859375 14.046875 -8.015625 L 14.046875 -11.828125 C 13.796875 -11.828125 13.671875 -11.847656 13.671875 -11.890625 L 13.546875 -11.828125 C 13.441406 -11.828125 13.390625 -11.875 13.390625 -11.96875 L 13.390625 -12.046875 C 13.398438 -12.140625 13.453125 -12.1875 13.546875 -12.1875 L 14.046875 -12.1875 L 14.046875 -13.484375 C 13.753906 -13.484375 13.609375 -13.53125 13.609375 -13.625 L 13.609375 -17.21875 L 13.671875 -17.359375 C 14.628906 -17.398438 15.347656 -17.421875 15.828125 -17.421875 L 18.421875 -17.421875 C 18.460938 -17.421875 18.484375 -17.398438 18.484375 -17.359375 L 18.640625 -17.421875 C 18.734375 -17.410156 18.78125 -17.363281 18.78125 -17.28125 L 18.78125 -13.546875 C 19.09375 -13.546875 19.257812 -13.476562 19.28125 -13.34375 L 19.28125 -12.328125 C 19.28125 -12.253906 19.207031 -12.1875 19.0625 -12.125 L 18.640625 -12.125 L 18.640625 -11.890625 L 19.0625 -11.890625 C 19.132812 -11.890625 19.207031 -11.820312 19.28125 -11.6875 L 19.28125 -6.796875 L 18.78125 -6.515625 L 18.78125 -3.71875 C 18.78125 -3.65625 18.640625 -3.5625 18.359375 -3.4375 L 18.421875 -2.921875 L 18.421875 -1.203125 C 18.660156 -1.203125 18.78125 -1.15625 18.78125 -1.0625 L 18.78125 1.59375 L 18.84375 1.953125 L 18.703125 2.03125 L 15.46875 2.03125 C 15 2.03125 14.28125 2.003906 13.3125 1.953125 C 12 -0.078125 11.238281 -1.128906 11.03125 -1.203125 C 10.800781 -1.203125 10.5625 -1.46875 10.3125 -2 C 9.59375 -2.925781 9.234375 -3.445312 9.234375 -3.5625 L 9.4375 -3.5625 L 9.4375 -3.71875 L 7.4375 -6.578125 C 7.675781 -6.628906 7.796875 -6.679688 7.796875 -6.734375 L 6.78125 -8.171875 L 6.78125 -9.171875 C 6.78125 -9.441406 6.519531 -9.921875 6 -10.609375 L 5.921875 -10.609375 L 5.921875 -6.796875 L 5.5 -6.515625 L 5.5 -6.375 L 6.28125 -6.375 C 6.375 -6.351562 6.421875 -6.300781 6.421875 -6.21875 L 6.421875 -6.015625 C 6.421875 -5.941406 6.351562 -5.867188 6.21875 -5.796875 L 5.5 -5.796875 L 5.421875 -4.9375 L 5.421875 -2.78125 L 5.5 -2.421875 C 5.382812 -2.328125 5.238281 -2.28125 5.0625 -2.28125 L 5.0625 -1.84375 L 5.421875 -1.5625 L 5.421875 0.875 L 5.5 1.3125 C 5.445312 1.394531 5.421875 1.488281 5.421875 1.59375 L 5.5 1.953125 L 5.359375 2.03125 L 2.203125 2.03125 C 1.785156 2.03125 1.132812 2.003906 0.25 1.953125 L 0.1875 1.8125 L 0.1875 1.734375 C 0.1875 1.691406 0.207031 1.671875 0.25 1.671875 L 0.1875 1.53125 L 0.1875 -1.5625 L -0.171875 -1.84375 L -0.171875 -2.140625 L 0.1875 -2.421875 L 0.1875 -5.65625 C 0.1875 -5.71875 0.257812 -5.789062 0.40625 -5.875 L 1.046875 -5.875 C 1.140625 -5.875 1.1875 -5.921875 1.1875 -6.015625 L 1.1875 -6.21875 C 1.1875 -6.320312 1.140625 -6.375 1.046875 -6.375 L 0.328125 -6.375 C 0.234375 -6.375 0.1875 -6.421875 0.1875 -6.515625 C 0.195312 -6.609375 0.242188 -6.65625 0.328125 -6.65625 L 0.6875 -6.65625 L 0.6875 -6.796875 C 0.6875 -6.960938 0.707031 -7.082031 0.75 -7.15625 L 0.6875 -7.515625 L 0.75 -7.8125 C 0.75 -7.851562 0.726562 -7.875 0.6875 -7.875 L 0.75 -8.234375 L 0.75 -8.375 C 0.75 -8.570312 0.726562 -8.671875 0.6875 -8.671875 L 0.75 -9.171875 L 0.75 -9.46875 C 0.75 -10.082031 0.726562 -10.890625 0.6875 -11.890625 L 0.75 -12.046875 L 0.6875 -12.1875 C 0.726562 -12.570312 0.800781 -12.765625 0.90625 -12.765625 L 1.546875 -12.765625 C 1.878906 -12.765625 2.40625 -12.785156 3.125 -12.828125 L 3.125 -12.984375 L 3.0625 -12.984375 C 2.707031 -12.984375 2.441406 -13.003906 2.265625 -13.046875 C 1.953125 -13.003906 1.640625 -12.984375 1.328125 -12.984375 C 0.847656 -12.984375 0.609375 -13.148438 0.609375 -13.484375 C 0.328125 -13.484375 0.1875 -13.550781 0.1875 -13.6875 L 0.1875 -17.21875 L 0.25 -17.359375 C 1.28125 -17.398438 2 -17.421875 2.40625 -17.421875 Z M -0.171875 -12.1875 L -0.03125 -12.1875 C 0.0625 -12.164062 0.109375 -12.117188 0.109375 -12.046875 C 0.109375 -11.941406 -0.0078125 -11.867188 -0.25 -11.828125 L -0.3125 -11.96875 L -0.3125 -12.046875 C -0.300781 -12.140625 -0.253906 -12.1875 -0.171875 -12.1875 Z M 12.75 -12.1875 L 12.8125 -12.1875 C 12.914062 -12.164062 12.96875 -12.117188 12.96875 -12.046875 L 12.96875 -11.96875 C 12.96875 -11.875 12.914062 -11.828125 12.8125 -11.828125 C 12.75 -11.828125 12.679688 -11.898438 12.609375 -12.046875 C 12.617188 -12.140625 12.664062 -12.1875 12.75 -12.1875 Z M 14.53125 -7.15625 C 14.550781 -7.0625 14.601562 -7.015625 14.6875 -7.015625 L 14.6875 -7.15625 Z M 14.828125 -6.953125 L 14.828125 -6.796875 L 14.90625 -6.796875 L 14.90625 -6.953125 Z M 14.828125 -6.953125 "/></g></g><g transform="translate(132.241402, 29.129293)"><g><path d="M 2.421875 -17.453125 L 12.640625 -17.453125 C 12.703125 -17.453125 12.769531 -17.382812 12.84375 -17.25 L 12.84375 -14.796875 C 12.84375 -14.734375 12.914062 -14.660156 13.0625 -14.578125 L 13.34375 -14.578125 C 13.457031 -14.578125 13.554688 -14.601562 13.640625 -14.65625 C 13.878906 -14.59375 14 -14.519531 14 -14.4375 L 14 -14.296875 C 14 -14.203125 13.953125 -14.15625 13.859375 -14.15625 L 13.5 -14.15625 L 13.5 -13.796875 C 13.5 -13.691406 13.445312 -13.640625 13.34375 -13.640625 L 8.390625 -13.640625 C 7.890625 -13.640625 7.125 -13.617188 6.09375 -13.578125 L 6.09375 -12.921875 C 6.113281 -12.828125 6.160156 -12.78125 6.234375 -12.78125 L 6.875 -12.78125 C 6.976562 -12.769531 7.03125 -12.722656 7.03125 -12.640625 L 7.03125 -9.546875 L 13.28125 -9.546875 C 13.375 -9.535156 13.421875 -9.488281 13.421875 -9.40625 L 13.421875 -8.328125 C 13.421875 -8.234375 13.160156 -8.160156 12.640625 -8.109375 L 12.484375 -8.1875 L 12.0625 -8.109375 C 11.96875 -8.160156 11.894531 -8.1875 11.84375 -8.1875 L 11.765625 -7.828125 L 11.765625 -6.609375 L 11.84375 -5.890625 L 11.625 -5.734375 L 5.515625 -5.734375 C 5.515625 -5.566406 5.347656 -5.472656 5.015625 -5.453125 L 4.578125 -5.515625 L 4.4375 -5.515625 C 4.34375 -5.503906 4.296875 -5.457031 4.296875 -5.375 L 4.296875 -5.3125 L 4.71875 -5.3125 L 5.453125 -5.234375 L 5.453125 -2.859375 C 5.453125 -2.597656 5.59375 -2.457031 5.875 -2.4375 C 5.875 -2.320312 5.898438 -2.222656 5.953125 -2.140625 C 5.898438 -2.054688 5.875 -1.960938 5.875 -1.859375 L 5.875 -1.78125 L 12.71875 -1.78125 C 12.800781 -1.78125 12.867188 -1.539062 12.921875 -1.0625 L 14 -1.0625 C 14.09375 -1.050781 14.140625 -1.003906 14.140625 -0.921875 C 14.140625 -0.828125 14.09375 -0.78125 14 -0.78125 L 13.21875 -0.78125 L 12.84375 -0.703125 L 12.84375 2.03125 L 1.0625 2.03125 C 1.007812 2.03125 0.984375 2.003906 0.984375 1.953125 L 0.84375 2.03125 L 0.421875 2.03125 C 0.347656 2.03125 0.269531 1.957031 0.1875 1.8125 L 0.1875 1.671875 C 0.1875 1.617188 0.210938 1.59375 0.265625 1.59375 L 0.1875 1.453125 L 0.1875 -0.28125 L -0.171875 -0.34375 L -0.8125 -0.34375 C -0.90625 -0.34375 -0.953125 -0.390625 -0.953125 -0.484375 L -0.953125 -0.640625 C -0.941406 -0.734375 -0.894531 -0.78125 -0.8125 -0.78125 C -0.0078125 -0.820312 0.613281 -0.84375 1.0625 -0.84375 L 1.34375 -0.84375 L 1.34375 -0.984375 L 0.625 -1.0625 L 0.34375 -1.0625 C 0.238281 -1.0625 0.1875 -1.132812 0.1875 -1.28125 L 0.265625 -1.421875 C 0.210938 -1.503906 0.1875 -1.597656 0.1875 -1.703125 C 0.1875 -1.773438 0.332031 -1.847656 0.625 -1.921875 C 0.675781 -2.003906 0.703125 -2.101562 0.703125 -2.21875 C 0.703125 -2.425781 0.53125 -2.539062 0.1875 -2.5625 L 0.1875 -5.015625 L 0.265625 -5.15625 L 0.125 -5.234375 L -0.8125 -5.234375 C -0.90625 -5.234375 -0.953125 -5.28125 -0.953125 -5.375 C -0.941406 -5.46875 -0.894531 -5.515625 -0.8125 -5.515625 L 0.046875 -5.515625 C 0.140625 -5.515625 0.1875 -5.566406 0.1875 -5.671875 L 0.1875 -8.046875 C 0.1875 -8.140625 0.265625 -8.1875 0.421875 -8.1875 C 0.566406 -8.1875 1.019531 -8.207031 1.78125 -8.25 L 1.78125 -12.640625 C 1.78125 -12.785156 1.515625 -12.859375 0.984375 -12.859375 L 0.84375 -12.859375 L 0.84375 -14.015625 L 1.34375 -14.296875 L 1.34375 -14.4375 C 1.34375 -14.53125 1.296875 -14.578125 1.203125 -14.578125 L 0.34375 -14.578125 C 0.238281 -14.578125 0.1875 -14.628906 0.1875 -14.734375 L 0.1875 -17.25 L 0.265625 -17.390625 C 1.222656 -17.429688 1.941406 -17.453125 2.421875 -17.453125 Z M -0.3125 -8.828125 L 0.046875 -8.828125 C 0.140625 -8.804688 0.1875 -8.757812 0.1875 -8.6875 L 0.1875 -8.328125 C 0.1875 -8.234375 0.140625 -8.1875 0.046875 -8.1875 L -0.3125 -8.1875 C -0.40625 -8.1875 -0.453125 -8.234375 -0.453125 -8.328125 L -0.453125 -8.6875 C -0.429688 -8.78125 -0.382812 -8.828125 -0.3125 -8.828125 Z M 2.28125 -0.84375 L 2.9375 -0.84375 L 2.9375 -0.984375 L 2.421875 -0.984375 C 2.328125 -0.972656 2.28125 -0.925781 2.28125 -0.84375 Z M 10.046875 -0.78125 L 10.046875 -0.484375 C 10.054688 -0.390625 10.109375 -0.34375 10.203125 -0.34375 L 11.1875 -0.34375 C 11.1875 -0.394531 11.210938 -0.46875 11.265625 -0.5625 C 11.210938 -0.65625 11.1875 -0.726562 11.1875 -0.78125 Z M 10.046875 -0.78125 "/></g></g></g></svg>