<svg xmlns="http://www.w3.org/2000/svg" xmlns:xlink="http://www.w3.org/1999/xlink" width="500" zoomAndPan="magnify" viewBox="0 0 375 74.999997" height="100" preserveAspectRatio="xMidYMid meet" version="1.0"><defs><g/></defs><g fill="#fdb11d" fill-opacity="1"><g transform="translate(23.097894, 53.163946)"><g><path d="M 6.296875 -40.71875 L 15.859375 -40.71875 C 22.671875 -40.71875 27.992188 -39.148438 31.828125 -36.015625 C 34.640625 -33.722656 36.710938 -31.425781 38.046875 -29.125 L 40.40625 -29.125 C 42.414062 -25.695312 43.421875 -22.734375 43.421875 -20.234375 L 43.421875 -19.890625 C 43.421875 -19.835938 43.304688 -19.671875 43.078125 -19.390625 L 42.234375 -19.546875 L 40.90625 -19.546875 L 40.90625 -18.734375 C 40.90625 -18.492188 40.785156 -18.375 40.546875 -18.375 L 38.71875 -18.375 L 38.71875 -17.046875 L 40.546875 -17.046875 C 40.785156 -17.015625 40.90625 -16.898438 40.90625 -16.703125 L 40.90625 -16.375 C 40.90625 -13.925781 39.953125 -10.726562 38.046875 -6.78125 C 37.816406 -6.75 37.703125 -6.632812 37.703125 -6.4375 L 37.703125 -6.296875 L 40.90625 -6.296875 C 41.113281 -6.265625 41.21875 -6.148438 41.21875 -5.953125 C 40.851562 -5.734375 40.523438 -5.625 40.234375 -5.625 L 37.359375 -5.625 L 34.859375 -2.578125 L 31.65625 -2.578125 C 29.96875 -2.578125 29.125 -2.304688 29.125 -1.765625 L 29.125 -1.578125 L 33.5 -1.578125 C 33.726562 -1.546875 33.84375 -1.429688 33.84375 -1.234375 C 33.65625 -1.234375 32.984375 -0.734375 31.828125 0.265625 C 27.597656 3.296875 23.515625 4.8125 19.578125 4.8125 L 1.0625 4.8125 L 1.0625 -1.234375 C 1.0625 -1.460938 0.957031 -1.578125 0.75 -1.578125 L 0.390625 -1.578125 C -2.515625 -1.578125 -3.96875 -1.742188 -3.96875 -2.078125 L -3.96875 -2.25 C -3.9375 -2.46875 -3.816406 -2.578125 -3.609375 -2.578125 L 0.75 -2.578125 C 0.957031 -2.578125 1.0625 -2.691406 1.0625 -2.921875 L 1.0625 -5.625 C 1.8125 -5.625 2.9375 -5.671875 4.4375 -5.765625 L 4.4375 -6.125 C 2.914062 -6.238281 1.847656 -6.296875 1.234375 -6.296875 L 1.0625 -6.609375 L 1.0625 -16.515625 C 1.0625 -16.679688 0.894531 -16.859375 0.5625 -17.046875 L -0.9375 -17.046875 C -1.15625 -17.046875 -1.265625 -17.148438 -1.265625 -17.359375 L -1.265625 -18.03125 C -1.265625 -18.300781 -0.816406 -18.476562 0.078125 -18.5625 L 0.390625 -18.375 L 1.578125 -19.390625 C 3.035156 -19.390625 3.765625 -19.554688 3.765625 -19.890625 L 3.765625 -28.78125 C 3.765625 -29.050781 2.863281 -29.285156 1.0625 -29.484375 L 1.0625 -40.234375 L 1.234375 -40.546875 C 3.484375 -40.660156 5.171875 -40.71875 6.296875 -40.71875 Z M 13.171875 -31.3125 L 13.171875 -29.484375 C 13.210938 -29.242188 13.320312 -29.125 13.5 -29.125 L 15.53125 -29.125 C 15.75 -29.09375 15.859375 -28.976562 15.859375 -28.78125 L 15.859375 -19.890625 C 15.859375 -19.804688 15.691406 -19.640625 15.359375 -19.390625 L 14.515625 -19.546875 L 13.5 -19.546875 L 12.828125 -18.375 L 11.328125 -18.375 C 11.109375 -18.34375 11 -18.226562 11 -18.03125 L 11 -17.046875 L 12.828125 -17.046875 C 12.929688 -17.046875 13.109375 -16.867188 13.359375 -16.515625 L 13.171875 -15.6875 L 13.171875 -9.140625 C 13.171875 -8.890625 13.234375 -8.664062 13.359375 -8.46875 C 13.234375 -8.269531 13.171875 -8.046875 13.171875 -7.796875 L 13.171875 -7.140625 L 13.359375 -6.296875 L 15.359375 -6.296875 C 15.609375 -6.296875 15.832031 -6.238281 16.03125 -6.125 C 16.226562 -6.238281 16.453125 -6.296875 16.703125 -6.296875 L 16.875 -5.953125 L 16.203125 -5.625 C 15.972656 -5.625 15.859375 -5.671875 15.859375 -5.765625 L 14.6875 -5.625 L 13.359375 -5.625 L 13.171875 -4.78125 L 13.171875 -4.4375 C 13.210938 -4.207031 13.320312 -4.09375 13.5 -4.09375 L 17.046875 -4.09375 C 18.128906 -4.09375 19.921875 -4.601562 22.421875 -5.625 C 24.109375 -5.71875 25.335938 -5.765625 26.109375 -5.765625 L 26.28125 -6.125 C 25.15625 -6.238281 24.3125 -6.296875 23.75 -6.296875 L 23.4375 -6.296875 L 23.4375 -6.609375 C 25.5 -8.117188 27.007812 -10.304688 27.96875 -13.171875 L 28.8125 -16.703125 L 28.296875 -17.046875 L 26.78125 -17.046875 C 26.5625 -17.046875 26.453125 -17.148438 26.453125 -17.359375 L 26.453125 -18.03125 C 26.453125 -18.195312 26.617188 -18.375 26.953125 -18.5625 C 27.066406 -18.5625 27.125 -18.5 27.125 -18.375 C 28.164062 -18.375 28.832031 -18.710938 29.125 -19.390625 L 30.140625 -19.390625 L 31.3125 -19.546875 L 31.3125 -19.890625 C 30.894531 -23.191406 29.273438 -26.210938 26.453125 -28.953125 C 23.992188 -29.148438 22.476562 -29.546875 21.90625 -30.140625 C 20.101562 -31.148438 18.585938 -31.65625 17.359375 -31.65625 L 13.5 -31.65625 C 13.28125 -31.625 13.171875 -31.507812 13.171875 -31.3125 Z M 0.25 -29.125 L 0.5625 -29.125 C 0.800781 -29.09375 0.921875 -28.976562 0.921875 -28.78125 L 0.921875 -28.46875 C 0.921875 -28.269531 0.640625 -28.101562 0.078125 -27.96875 L -0.09375 -28.296875 L -0.09375 -28.78125 C -0.0625 -29.007812 0.0507812 -29.125 0.25 -29.125 Z M 24.109375 -19.390625 L 25.9375 -19.390625 C 26.164062 -19.359375 26.28125 -19.242188 26.28125 -19.046875 L 26.28125 -18.875 C 26.28125 -18.664062 26.164062 -18.5625 25.9375 -18.5625 L 24.421875 -18.5625 C 24.210938 -18.5625 24.109375 -18.664062 24.109375 -18.875 Z M -2.796875 -18.5625 L -2.453125 -18.5625 C -2.222656 -18.519531 -2.109375 -18.398438 -2.109375 -18.203125 L -2.109375 -17.359375 C -2.109375 -17.148438 -2.222656 -17.046875 -2.453125 -17.046875 L -3.125 -17.046875 L -3.125 -18.203125 C -3.09375 -18.441406 -2.984375 -18.5625 -2.796875 -18.5625 Z M -2.796875 -18.5625 "/></g></g><g transform="translate(66.874042, 53.163946)"><g><path d="M 4.1875 -40.71875 C 4.40625 -40.71875 4.515625 -40.660156 4.515625 -40.546875 C 6.191406 -40.660156 7.425781 -40.71875 8.21875 -40.71875 L 19.96875 -40.71875 C 24.226562 -40.71875 27.082031 -40.332031 28.53125 -39.5625 C 29.539062 -39.257812 30.160156 -38.921875 30.390625 -38.546875 C 30.273438 -38.347656 30.21875 -38.125 30.21875 -37.875 C 31.96875 -37.03125 33.476562 -35.179688 34.75 -32.328125 C 35.539062 -29.953125 35.9375 -28.160156 35.9375 -26.953125 C 35.9375 -26.535156 35.773438 -25.191406 35.453125 -22.921875 C 36.109375 -22.921875 36.4375 -22.800781 36.4375 -22.5625 C 35.164062 -19.082031 33.148438 -16.507812 30.390625 -14.84375 L 27.875 -13.84375 L 27.875 -13.671875 C 28.132812 -13.421875 28.753906 -12.519531 29.734375 -10.96875 C 29.367188 -10.757812 29.085938 -10.65625 28.890625 -10.65625 L 29.0625 -10.3125 L 29.0625 -10.125 C 27.03125 -10.03125 25.679688 -9.984375 25.015625 -9.984375 L 25.015625 -9.8125 C 25.046875 -9.582031 25.164062 -9.46875 25.375 -9.46875 L 29.546875 -9.46875 L 31.0625 -7.625 C 32.164062 -7.625 32.894531 -7.066406 33.25 -5.953125 L 33.25 -5.765625 C 32.6875 -5.765625 32.40625 -5.648438 32.40625 -5.421875 C 35.882812 -0.421875 37.625 2.148438 37.625 2.296875 C 37.175781 2.378906 36.953125 2.488281 36.953125 2.625 C 37.734375 3.800781 38.125 4.476562 38.125 4.65625 L 37.796875 4.8125 L 29.375 4.8125 C 28.4375 4.8125 26.925781 4.757812 24.84375 4.65625 C 23.957031 3.382812 23.515625 2.707031 23.515625 2.625 C 23.691406 2.507812 23.96875 2.453125 24.34375 2.453125 L 24.34375 2.296875 C 21.09375 -2.640625 19.46875 -5.328125 19.46875 -5.765625 L 20.140625 -5.765625 L 20.140625 -6.125 C 19.796875 -7.226562 19.128906 -7.78125 18.140625 -7.78125 C 17.265625 -8.90625 16.585938 -9.46875 16.109375 -9.46875 L 13.078125 -9.46875 L 13.078125 -8.625 C 13.078125 -8.519531 13.03125 -8.46875 12.9375 -8.46875 L 13.078125 -8.125 L 13.078125 -0.390625 L 14.9375 -0.390625 C 15.164062 -0.359375 15.28125 -0.242188 15.28125 -0.046875 C 15.28125 0.160156 15.164062 0.265625 14.9375 0.265625 L 13.078125 0.265625 C 13.078125 0.828125 13.03125 1.109375 12.9375 1.109375 L 13.078125 1.46875 L 13.078125 3.46875 C 13.078125 3.71875 13.03125 3.941406 12.9375 4.140625 C 13.03125 4.347656 13.078125 4.519531 13.078125 4.65625 L 12.765625 4.8125 L 5.875 4.8125 C 4.75 4.8125 3.0625 4.757812 0.8125 4.65625 L 0.8125 0.625 C 0.84375 0.382812 0.960938 0.265625 1.171875 0.265625 L 3 0.265625 L 3 -0.21875 L 1.171875 -0.21875 C 0.929688 -0.21875 0.8125 -0.332031 0.8125 -0.5625 L 0.8125 -9.296875 L -0.03125 -9.46875 L -3.375 -9.46875 C -3.601562 -9.46875 -3.71875 -9.582031 -3.71875 -9.8125 L -3.375 -9.984375 C -0.582031 -10.035156 0.8125 -10.144531 0.8125 -10.3125 C 0.8125 -10.65625 0.929688 -10.828125 1.171875 -10.828125 C 1.378906 -10.710938 1.539062 -10.65625 1.65625 -10.65625 L 1.828125 -10.96875 L 1.828125 -22.421875 C 1.859375 -22.628906 1.96875 -22.734375 2.15625 -22.734375 L 3 -22.734375 L 3.171875 -23.75 C 2.953125 -23.875 2.785156 -23.9375 2.671875 -23.9375 C 1.679688 -23.8125 1.117188 -23.75 0.984375 -23.75 C 0.984375 -24.644531 0.539062 -25.09375 -0.34375 -25.09375 L -0.34375 -25.9375 L 0.8125 -26.609375 L 0.8125 -37.875 L 1.828125 -38.546875 L 1.828125 -40.234375 C 1.859375 -40.441406 1.96875 -40.546875 2.15625 -40.546875 L 3.34375 -40.546875 C 3.726562 -40.546875 4.007812 -40.601562 4.1875 -40.71875 Z M 13.078125 -31.8125 C 13.078125 -31.707031 13.03125 -31.65625 12.9375 -31.65625 C 13.03125 -30.53125 13.078125 -29.6875 13.078125 -29.125 L 13.078125 -28.109375 C 13.078125 -27.992188 13.03125 -27.9375 12.9375 -27.9375 L 13.078125 -27.625 L 13.078125 -27.453125 C 13.078125 -26.441406 12.632812 -25.9375 11.75 -25.9375 L 11.75 -24.921875 C 12.632812 -24.859375 13.078125 -24.691406 13.078125 -24.421875 L 12.9375 -24.421875 C 13.03125 -24.210938 13.078125 -24.050781 13.078125 -23.9375 L 17.125 -23.9375 L 17.125 -23.578125 L 15.609375 -23.578125 L 14.9375 -22.734375 L 14.09375 -22.734375 L 14.09375 -21.0625 L 19.296875 -21.0625 C 21.554688 -21.0625 23.078125 -21.617188 23.859375 -22.734375 C 24.960938 -22.734375 25.515625 -23.132812 25.515625 -23.9375 L 24 -23.9375 L 23.6875 -24.078125 C 23.894531 -24.859375 24 -25.535156 24 -26.109375 L 24 -27.453125 C 24 -28.617188 22.992188 -29.90625 20.984375 -31.3125 C 20.734375 -31.539062 19.617188 -31.707031 17.640625 -31.8125 L 17.296875 -31.65625 L 16.9375 -31.8125 C 16.84375 -31.8125 16.796875 -31.757812 16.796875 -31.65625 C 16.398438 -31.757812 16.171875 -31.8125 16.109375 -31.8125 C 15.128906 -31.707031 14.570312 -31.65625 14.4375 -31.65625 C 13.8125 -31.757812 13.359375 -31.8125 13.078125 -31.8125 Z M 3.515625 -23.75 L 3.515625 -23.578125 L 3.84375 -23.578125 L 3.84375 -23.75 Z M 4.359375 -23.75 L 4.359375 -23.578125 L 4.6875 -23.578125 L 4.6875 -23.75 Z M 36.125 -23.9375 L 36.609375 -23.9375 L 36.609375 -23.578125 L 36.125 -23.578125 Z M 37.28125 -23.9375 L 37.796875 -23.9375 L 37.796875 -23.578125 L 37.28125 -23.578125 Z M 38.125 -23.9375 L 39.640625 -23.9375 L 39.640625 -23.578125 L 38.125 -23.578125 Z M 13.59375 -10.65625 L 13.25 -10.828125 C 13.25 -10.597656 13.144531 -10.484375 12.9375 -10.484375 C 13.03125 -10.265625 13.078125 -10.097656 13.078125 -9.984375 C 14.203125 -10.078125 15.046875 -10.125 15.609375 -10.125 L 15.78125 -10.125 L 16.109375 -9.984375 L 16.796875 -11.140625 C 16.347656 -12.148438 16.066406 -12.65625 15.953125 -12.65625 L 14.4375 -12.65625 C 14.207031 -12.65625 14.035156 -11.988281 13.921875 -10.65625 Z M 8.546875 -9.984375 L 8.546875 -9.8125 C 8.578125 -9.582031 8.691406 -9.46875 8.890625 -9.46875 L 11.921875 -9.46875 C 12.128906 -9.46875 12.234375 -9.582031 12.234375 -9.8125 L 12.234375 -9.984375 Z M 22 2.625 L 22.3125 2.625 C 22.3125 2.800781 22.429688 3.023438 22.671875 3.296875 L 22.671875 3.640625 C 22.515625 3.617188 22.289062 3.335938 22 2.796875 Z M 23.15625 4.3125 L 23.328125 4.3125 L 23.328125 4.65625 L 23.15625 4.65625 Z M 23.15625 4.3125 "/></g></g><g transform="translate(105.125525, 53.163946)"><g><path d="M 25.5625 -40.65625 C 29.414062 -40.65625 32.671875 -39.835938 35.328125 -38.203125 C 35.128906 -38.097656 34.914062 -38.046875 34.6875 -38.046875 L 34.6875 -37.734375 C 35.082031 -37.734375 36.59375 -36.695312 39.21875 -34.625 C 39.863281 -34.625 40.515625 -34.410156 41.171875 -33.984375 L 42.984375 -33.984375 L 43.765625 -33.8125 L 43.765625 -33.640625 C 43.765625 -33.421875 43.660156 -33.3125 43.453125 -33.3125 L 42.640625 -33.3125 C 42.535156 -33.3125 42.484375 -33.375 42.484375 -33.5 C 42.304688 -33.375 42.035156 -33.3125 41.671875 -33.3125 L 41.671875 -33.171875 C 44.128906 -30.429688 45.96875 -26.738281 47.1875 -22.09375 L 46.71875 -21.78125 L 42.8125 -21.78125 L 42.8125 -21.609375 C 44.40625 -21.609375 45.328125 -21.554688 45.578125 -21.453125 C 45.765625 -21.554688 46.039062 -21.609375 46.40625 -21.609375 L 46.71875 -21.609375 C 47.144531 -21.609375 47.359375 -20.570312 47.359375 -18.5 C 47.398438 -18.289062 47.507812 -18.1875 47.6875 -18.1875 L 49.328125 -18.1875 C 49.421875 -18.1875 49.46875 -18.132812 49.46875 -18.03125 L 49.8125 -18.1875 L 49.96875 -18.1875 C 50.625 -18.113281 50.953125 -17.957031 50.953125 -17.71875 C 50.953125 -14.09375 49.921875 -10.445312 47.859375 -6.78125 L 47.53125 -6.640625 L 44.4375 -6.640625 L 43.765625 -6.140625 L 42.15625 -6.140625 C 41.945312 -6.109375 41.84375 -6.003906 41.84375 -5.828125 C 43.03125 -5.828125 43.625 -5.765625 43.625 -5.640625 C 41.09375 -1.484375 37.1875 1.597656 31.90625 3.609375 C 29.332031 4.273438 26.992188 4.609375 24.890625 4.609375 L 23.109375 4.609375 C 21.835938 4.609375 20.972656 4.492188 20.515625 4.265625 C 20.296875 4.378906 20.128906 4.4375 20.015625 4.4375 C 15.242188 3.625 11.503906 2.046875 8.796875 -0.296875 C 6.691406 -2.066406 5.003906 -3.847656 3.734375 -5.640625 C 3.554688 -5.765625 3.34375 -5.828125 3.09375 -5.828125 L 1.640625 -5.828125 L 1.640625 -6.140625 L 3.25 -6.140625 C 3.25 -6.472656 3.363281 -6.640625 3.59375 -6.640625 L 5.703125 -6.640625 L 6.515625 -6.78125 C 4.828125 -9.988281 3.898438 -12.921875 3.734375 -15.578125 L 3.734375 -16.078125 L 3.921875 -16.40625 C 4.015625 -16.40625 4.0625 -16.34375 4.0625 -16.21875 C 5.695312 -16.34375 6.894531 -16.40625 7.65625 -16.40625 L 10.078125 -16.40625 L 10.078125 -16.578125 C 10.078125 -16.785156 9.972656 -16.890625 9.765625 -16.890625 L 3.921875 -16.890625 C 3.785156 -16.890625 3.507812 -17.269531 3.09375 -18.03125 L 0.328125 -18.03125 C 0.109375 -18.03125 0 -18.140625 0 -18.359375 C 0 -18.566406 0.4375 -18.734375 1.3125 -18.859375 L 1.3125 -19.5 C 1.195312 -19.5 1.03125 -19.546875 0.8125 -19.640625 C 0.601562 -19.546875 0.441406 -19.5 0.328125 -19.5 C 0.222656 -19.707031 0.171875 -19.867188 0.171875 -19.984375 C 0.484375 -23.753906 1.890625 -27.546875 4.390625 -31.359375 C 5.347656 -32.660156 6.222656 -33.3125 7.015625 -33.3125 C 8.410156 -33.3125 9.109375 -33.476562 9.109375 -33.8125 C 8.753906 -34.03125 8.4375 -34.140625 8.15625 -34.140625 L 7.984375 -34.140625 L 7.15625 -33.984375 L 7.015625 -34.3125 L 7.15625 -34.625 C 6.726562 -34.625 6.515625 -34.734375 6.515625 -34.953125 C 7.328125 -35.660156 8.847656 -36.691406 11.078125 -38.046875 L 12.859375 -38.046875 C 15.765625 -39.785156 20 -40.65625 25.5625 -40.65625 Z M 12.046875 -20.3125 L 12.046875 -19.984375 L 13.03125 -19.328125 L 13.03125 -19 C 13.03125 -18.78125 12.914062 -18.671875 12.6875 -18.671875 L 11.890625 -18.671875 L 11.890625 -18.1875 L 14.8125 -18.1875 C 15 -18.1875 15.164062 -17.804688 15.3125 -17.046875 C 17.632812 -16.941406 19.367188 -16.890625 20.515625 -16.890625 L 21.796875 -16.890625 L 21.796875 -16.578125 C 21.796875 -16.335938 21.691406 -16.21875 21.484375 -16.21875 C 21.285156 -16.34375 21.125 -16.40625 21 -16.40625 C 20.882812 -16.40625 20.828125 -16.34375 20.828125 -16.21875 L 20.015625 -16.40625 C 19.617188 -16.40625 18.097656 -16.34375 15.453125 -16.21875 L 15.453125 -15.4375 C 15.984375 -12.769531 17.335938 -10.375 19.515625 -8.25 C 20.722656 -7.425781 21.328125 -6.9375 21.328125 -6.78125 L 21 -6.640625 L 18.734375 -6.640625 L 18.875 -6.3125 L 18.875 -6.140625 L 17.90625 -6.140625 L 17.90625 -5.828125 L 19.875 -5.828125 C 21.800781 -5.273438 23.09375 -5 23.75 -5 C 24.382812 -5 25.421875 -5.164062 26.859375 -5.5 C 26.859375 -5.71875 26.75 -5.828125 26.53125 -5.828125 L 25.71875 -5.828125 L 25.71875 -6.140625 L 27.5 -6.140625 C 27.613281 -6.140625 28.375 -6.304688 29.78125 -6.640625 L 31.40625 -6.640625 C 31.65625 -6.640625 31.875 -6.6875 32.0625 -6.78125 C 32.269531 -6.6875 32.429688 -6.640625 32.546875 -6.640625 C 34.679688 -7.546875 36.582031 -9.550781 38.25 -12.65625 C 38.894531 -14.832031 39.21875 -16.082031 39.21875 -16.40625 L 39.21875 -17.71875 C 39.21875 -17.894531 38.679688 -18.050781 37.609375 -18.1875 L 37.28125 -18.03125 L 36.140625 -18.03125 C 35.691406 -18.03125 35.46875 -19.113281 35.46875 -21.28125 L 34.6875 -21.453125 L 29.125 -21.453125 L 29.125 -21.78125 C 30.757812 -21.875 31.957031 -21.921875 32.71875 -21.921875 L 35.15625 -21.921875 L 35.15625 -22.09375 C 34.125 -24.988281 32.492188 -27.210938 30.265625 -28.765625 C 27.804688 -30.285156 25.800781 -31.046875 24.25 -31.046875 C 19.707031 -31.046875 16.015625 -28.710938 13.171875 -24.046875 C 12.421875 -22.140625 12.046875 -20.894531 12.046875 -20.3125 Z M 0.8125 -16.890625 L 2.59375 -16.890625 C 2.8125 -16.859375 2.921875 -16.753906 2.921875 -16.578125 L 2.59375 -16.40625 L 0.8125 -16.40625 Z M 40.84375 -16.21875 L 40.703125 -15.90625 L 40.703125 -15.75 L 40.84375 -15.75 C 40.84375 -15.96875 40.953125 -16.078125 41.171875 -16.078125 L 41.171875 -16.21875 Z M 20.828125 -13.796875 L 21 -13.796875 C 21.21875 -13.765625 21.328125 -13.65625 21.328125 -13.46875 L 21.328125 -12.984375 C 21.328125 -12.765625 21.21875 -12.65625 21 -12.65625 L 20.828125 -12.65625 C 20.617188 -12.65625 20.515625 -12.765625 20.515625 -12.984375 L 20.515625 -13.46875 C 20.546875 -13.6875 20.648438 -13.796875 20.828125 -13.796875 Z M 1.78125 -12.015625 L 2.78125 -12.015625 L 2.921875 -11.203125 L 2.453125 -10.875 L 1.953125 -10.875 C 1.742188 -10.875 1.582031 -11.195312 1.46875 -11.84375 Z M 1.78125 -12.015625 "/></g></g><g transform="translate(153.138074, 53.163946)"><g><path d="M 3.921875 -40.71875 C 4.515625 -40.601562 5.070312 -40.546875 5.59375 -40.546875 C 6.125 -40.546875 6.6875 -40.601562 7.28125 -40.71875 C 7.53125 -40.71875 7.753906 -40.660156 7.953125 -40.546875 C 10.296875 -40.660156 12.203125 -40.71875 13.671875 -40.71875 L 20.390625 -40.71875 C 25.890625 -40.71875 29.757812 -39.429688 32 -36.859375 L 31.65625 -36.6875 L 30.5 -36.6875 L 30.5 -36.359375 C 30.53125 -36.128906 30.632812 -36.015625 30.8125 -36.015625 L 32.84375 -36.015625 C 34.332031 -34.710938 35.503906 -32.242188 36.359375 -28.609375 L 38.21875 -28.609375 C 38.4375 -28.578125 38.546875 -28.472656 38.546875 -28.296875 C 38.179688 -28.054688 37.851562 -27.9375 37.5625 -27.9375 L 37.203125 -28.109375 C 36.523438 -27.992188 36.1875 -27.878906 36.1875 -27.765625 C 36.300781 -27.554688 36.359375 -27.394531 36.359375 -27.28125 L 35.875 -26.921875 L 34.6875 -26.921875 L 34.6875 -25.421875 C 34.6875 -24.234375 34.070312 -22.332031 32.84375 -19.71875 C 32.613281 -19.664062 32.5 -19.550781 32.5 -19.375 L 36.71875 -19.375 L 36.71875 -18.875 L 33.6875 -18.875 C 33.425781 -18.875 33.195312 -18.816406 33 -18.703125 C 32.8125 -18.816406 32.585938 -18.875 32.328125 -18.875 C 31.992188 -18.53125 31.382812 -18.304688 30.5 -18.203125 C 29.9375 -17.679688 29.65625 -17.285156 29.65625 -17.015625 C 29.863281 -16.984375 29.96875 -16.867188 29.96875 -16.671875 C 28.269531 -15.003906 25.859375 -13.9375 22.734375 -13.46875 L 20.734375 -13.46875 C 19.285156 -13.46875 17.773438 -13.421875 16.203125 -13.328125 C 15.578125 -13.421875 15.125 -13.46875 14.84375 -13.46875 C 14.082031 -13.375 13.46875 -13.328125 13 -13.328125 L 12.65625 -13.46875 C 12.457031 -13.375 12.234375 -13.328125 11.984375 -13.328125 L 11.984375 -12.484375 C 11.984375 -12.367188 11.925781 -12.3125 11.8125 -12.3125 C 11.8125 -11.519531 12.375 -11.125 13.5 -11.125 L 13.5 3.140625 C 13.5 3.703125 13.722656 3.984375 14.171875 3.984375 L 14.171875 4.515625 C 14.171875 4.722656 14.0625 4.828125 13.84375 4.828125 L 6.609375 4.828125 C 5.648438 4.828125 4.25 4.78125 2.40625 4.6875 C 2.40625 4.78125 2.347656 4.828125 2.234375 4.828125 C 2.203125 4.460938 1.867188 4.078125 1.234375 3.671875 L 1.234375 -11.296875 L 0.390625 -11.46875 L -0.265625 -11.46875 L -0.265625 -16.515625 L -1.46875 -17.1875 L -1.46875 -18.03125 L 0.046875 -18.875 C 2.109375 -18.976562 3.398438 -19.03125 3.921875 -19.03125 L 3.921875 -19.203125 C 3.585938 -19.203125 3.195312 -19.257812 2.75 -19.375 L 2.40625 -19.203125 C 1.789062 -19.316406 1.285156 -19.375 0.890625 -19.375 L 0.046875 -19.375 C -0.160156 -19.375 -0.265625 -19.488281 -0.265625 -19.71875 L -0.265625 -26.921875 L 0.390625 -26.921875 C 1.054688 -26.921875 1.390625 -27.257812 1.390625 -27.9375 C 1.898438 -27.9375 2.238281 -27.992188 2.40625 -28.109375 C 2.601562 -27.992188 2.828125 -27.9375 3.078125 -27.9375 C 3.304688 -27.9375 3.421875 -28.054688 3.421875 -28.296875 C 3.421875 -28.503906 3.304688 -28.609375 3.078125 -28.609375 L 1.5625 -28.609375 C 1.34375 -28.609375 1.234375 -28.78125 1.234375 -29.125 C 1.234375 -30.519531 1.285156 -31.8125 1.390625 -33 C 1.285156 -33.851562 1.234375 -34.800781 1.234375 -35.84375 L 0.890625 -36.015625 L -0.796875 -36.015625 C -1.003906 -36.015625 -1.109375 -36.128906 -1.109375 -36.359375 C -1.078125 -36.578125 -0.972656 -36.6875 -0.796875 -36.6875 L 0.890625 -36.6875 C 1.148438 -36.6875 1.316406 -36.96875 1.390625 -37.53125 L 1.234375 -38.375 C 1.316406 -39.820312 1.484375 -40.546875 1.734375 -40.546875 L 2.40625 -40.546875 C 3 -40.546875 3.503906 -40.601562 3.921875 -40.71875 Z M -2.625 -36.6875 L -2.296875 -36.6875 C -2.066406 -36.65625 -1.953125 -36.546875 -1.953125 -36.359375 L -1.953125 -36.015625 L -2.625 -36.015625 C -2.851562 -36.015625 -2.96875 -36.128906 -2.96875 -36.359375 C -2.9375 -36.578125 -2.820312 -36.6875 -2.625 -36.6875 Z M 13.5 -31.8125 L 13.5 -28.953125 C 13.53125 -28.722656 13.644531 -28.609375 13.84375 -28.609375 L 15.359375 -28.609375 C 15.578125 -28.578125 15.6875 -28.472656 15.6875 -28.296875 C 15.6875 -28.054688 15.578125 -27.9375 15.359375 -27.9375 C 15.109375 -27.9375 14.882812 -27.992188 14.6875 -28.109375 C 14.488281 -27.992188 14.265625 -27.9375 14.015625 -27.9375 L 13.671875 -28.109375 C 13.523438 -27.316406 13.359375 -26.921875 13.171875 -26.921875 L 11.984375 -26.921875 C 11.984375 -26.296875 11.925781 -25.910156 11.8125 -25.765625 C 11.925781 -25.148438 11.984375 -24.644531 11.984375 -24.25 L 11.984375 -23.90625 C 11.984375 -23.65625 11.925781 -23.429688 11.8125 -23.234375 C 11.925781 -23.035156 11.984375 -22.8125 11.984375 -22.5625 L 11.984375 -21.90625 L 18.03125 -21.90625 C 20.363281 -21.90625 21.992188 -23.132812 22.921875 -25.59375 C 22.921875 -26.300781 23.035156 -26.800781 23.265625 -27.09375 L 24.109375 -26.921875 L 24.28125 -26.921875 C 24.488281 -26.921875 24.59375 -27.257812 24.59375 -27.9375 L 26.28125 -27.9375 C 26.28125 -28.050781 26.335938 -28.226562 26.453125 -28.46875 L 26.109375 -28.609375 L 24.28125 -28.609375 C 23.1875 -30.742188 21.335938 -31.8125 18.734375 -31.8125 Z M 21.75 -28.46875 L 23.578125 -28.46875 L 23.578125 -28.109375 L 22.59375 -28.109375 L 21.75 -28.296875 Z M 21.75 -28.46875 "/></g></g><g transform="translate(189.927876, 53.163946)"><g><path d="M 4.1875 -40.71875 L 38.75 -40.71875 L 38.75 -40.234375 L 36.90625 -40.234375 C 36.507812 -40.046875 35.445312 -38.195312 33.71875 -34.6875 C 34.507812 -34.6875 34.90625 -34.578125 34.90625 -34.359375 C 32.175781 -28.859375 30.328125 -25.445312 29.359375 -24.125 C 28.265625 -24.125 27.703125 -24.066406 27.671875 -23.953125 C 27.492188 -24.066406 27.269531 -24.125 27 -24.125 L 26.6875 -24.125 C 26.6875 -24.0625 26.789062 -23.890625 27 -23.609375 L 27 -23.4375 L 26.859375 -23.109375 L 28.015625 -22.9375 C 28.347656 -22.9375 28.515625 -22.992188 28.515625 -23.109375 L 29.359375 -22.9375 L 31.875 -22.9375 C 32.09375 -22.90625 32.203125 -22.800781 32.203125 -22.625 L 31.875 -22.4375 L 30.203125 -22.4375 C 29.804688 -22.4375 29.300781 -22.378906 28.6875 -22.265625 C 28.539062 -22.378906 28.148438 -22.4375 27.515625 -22.4375 C 26.722656 -21.4375 24.929688 -18.132812 22.140625 -12.53125 L 22.46875 -12.359375 L 24.15625 -12.359375 C 24.382812 -12.328125 24.5 -12.222656 24.5 -12.046875 C 24.4375 -11.710938 23.988281 -11.546875 23.15625 -11.546875 L 21.796875 -11.546875 L 20.8125 -10.53125 L 18.625 -10.53125 C 18.332031 -10.082031 17.65625 -9.859375 16.59375 -9.859375 L 17.609375 -9.1875 C 16.304688 -6.675781 15.523438 -5.050781 15.265625 -4.3125 L 16.9375 -4.3125 L 17.953125 -4.15625 C 18.054688 -4.15625 18.109375 -4.207031 18.109375 -4.3125 L 19.296875 -4.15625 C 19.953125 -4.15625 20.28125 -4.207031 20.28125 -4.3125 L 21.96875 -4.15625 L 30.203125 -4.15625 C 30.972656 -4.15625 32.203125 -4.207031 33.890625 -4.3125 C 34.203125 -3.53125 34.425781 -3.140625 34.5625 -3.140625 L 36.5625 -3.140625 C 36.789062 -3.109375 36.90625 -2.992188 36.90625 -2.796875 L 36.90625 2.546875 L 36.734375 4.5625 C 35.628906 4.675781 23.664062 4.675781 0.84375 4.5625 L 0.34375 4.5625 C 0.113281 4.5625 0 4.453125 0 4.234375 C 1.851562 0.929688 3.082031 -1.46875 3.6875 -2.96875 L 3.6875 -3.140625 L 3.515625 -3.140625 L 2 -3.3125 C 1.789062 -3.195312 1.628906 -3.140625 1.515625 -3.140625 L 1.34375 -3.5 L 4.359375 -9.015625 L 4.359375 -9.515625 L 3.515625 -9.515625 L 3.515625 -9.859375 L 4.53125 -9.859375 L 5.53125 -10.703125 L 7.734375 -10.703125 C 7.796875 -10.703125 8.125 -11.03125 8.71875 -11.6875 L 10.90625 -11.6875 C 11.132812 -11.6875 11.25 -11.804688 11.25 -12.046875 C 11.25 -12.253906 11.132812 -12.359375 10.90625 -12.359375 L 9.21875 -12.359375 L 8.890625 -12.53125 L 14.09375 -22.265625 C 15.945312 -22.378906 17.34375 -22.4375 18.28125 -22.4375 L 18.625 -22.4375 C 18.84375 -22.4375 18.953125 -22.546875 18.953125 -22.765625 L 18.953125 -22.9375 L 18.78125 -22.9375 C 17.675781 -22.9375 16 -22.992188 13.75 -23.109375 L 13.75 -23.28125 C 13.75 -23.945312 14.648438 -24.28125 16.453125 -24.28125 L 20.28125 -31.34375 L 20.28125 -31.828125 L 6.546875 -31.828125 C 6.296875 -31.828125 6.070312 -31.882812 5.875 -32 C 5.757812 -32 5.703125 -31.941406 5.703125 -31.828125 L 4.53125 -32 L 3.34375 -32 C 3.125 -32 3.015625 -32.109375 3.015625 -32.328125 L 3.015625 -34.359375 L 3.203125 -34.6875 C 2.191406 -34.6875 1.6875 -34.90625 1.6875 -35.34375 L 1.828125 -36.359375 L 1.6875 -37.375 L 1.828125 -38.375 L 1.6875 -40.0625 L 2 -40.234375 L 3.515625 -40.234375 Z M 2.671875 -35.203125 L 2.671875 -34.859375 L 2.84375 -34.859375 L 2.84375 -35.203125 Z M 0.84375 -34.359375 L 1.171875 -34.359375 L 1.171875 -32.171875 L 0.84375 -32.171875 Z M 4.53125 -33.34375 L 4.53125 -33 C 4.75 -33 4.859375 -32.890625 4.859375 -32.671875 L 5.03125 -32.671875 L 5.03125 -33 Z M 9.21875 -24.125 L 10.71875 -24.125 L 10.71875 -23.78125 L 9.21875 -23.78125 Z M 13.078125 -24.125 L 13.421875 -24.125 L 13.421875 -23.78125 L 13.078125 -23.78125 Z M 13.078125 -24.125 "/></g></g><g transform="translate(227.213162, 53.163946)"><g><path d="M 25.5625 -40.65625 C 29.414062 -40.65625 32.671875 -39.835938 35.328125 -38.203125 C 35.128906 -38.097656 34.914062 -38.046875 34.6875 -38.046875 L 34.6875 -37.734375 C 35.082031 -37.734375 36.59375 -36.695312 39.21875 -34.625 C 39.863281 -34.625 40.515625 -34.410156 41.171875 -33.984375 L 42.984375 -33.984375 L 43.765625 -33.8125 L 43.765625 -33.640625 C 43.765625 -33.421875 43.660156 -33.3125 43.453125 -33.3125 L 42.640625 -33.3125 C 42.535156 -33.3125 42.484375 -33.375 42.484375 -33.5 C 42.304688 -33.375 42.035156 -33.3125 41.671875 -33.3125 L 41.671875 -33.171875 C 44.128906 -30.429688 45.96875 -26.738281 47.1875 -22.09375 L 46.71875 -21.78125 L 42.8125 -21.78125 L 42.8125 -21.609375 C 44.40625 -21.609375 45.328125 -21.554688 45.578125 -21.453125 C 45.765625 -21.554688 46.039062 -21.609375 46.40625 -21.609375 L 46.71875 -21.609375 C 47.144531 -21.609375 47.359375 -20.570312 47.359375 -18.5 C 47.398438 -18.289062 47.507812 -18.1875 47.6875 -18.1875 L 49.328125 -18.1875 C 49.421875 -18.1875 49.46875 -18.132812 49.46875 -18.03125 L 49.8125 -18.1875 L 49.96875 -18.1875 C 50.625 -18.113281 50.953125 -17.957031 50.953125 -17.71875 C 50.953125 -14.09375 49.921875 -10.445312 47.859375 -6.78125 L 47.53125 -6.640625 L 44.4375 -6.640625 L 43.765625 -6.140625 L 42.15625 -6.140625 C 41.945312 -6.109375 41.84375 -6.003906 41.84375 -5.828125 C 43.03125 -5.828125 43.625 -5.765625 43.625 -5.640625 C 41.09375 -1.484375 37.1875 1.597656 31.90625 3.609375 C 29.332031 4.273438 26.992188 4.609375 24.890625 4.609375 L 23.109375 4.609375 C 21.835938 4.609375 20.972656 4.492188 20.515625 4.265625 C 20.296875 4.378906 20.128906 4.4375 20.015625 4.4375 C 15.242188 3.625 11.503906 2.046875 8.796875 -0.296875 C 6.691406 -2.066406 5.003906 -3.847656 3.734375 -5.640625 C 3.554688 -5.765625 3.34375 -5.828125 3.09375 -5.828125 L 1.640625 -5.828125 L 1.640625 -6.140625 L 3.25 -6.140625 C 3.25 -6.472656 3.363281 -6.640625 3.59375 -6.640625 L 5.703125 -6.640625 L 6.515625 -6.78125 C 4.828125 -9.988281 3.898438 -12.921875 3.734375 -15.578125 L 3.734375 -16.078125 L 3.921875 -16.40625 C 4.015625 -16.40625 4.0625 -16.34375 4.0625 -16.21875 C 5.695312 -16.34375 6.894531 -16.40625 7.65625 -16.40625 L 10.078125 -16.40625 L 10.078125 -16.578125 C 10.078125 -16.785156 9.972656 -16.890625 9.765625 -16.890625 L 3.921875 -16.890625 C 3.785156 -16.890625 3.507812 -17.269531 3.09375 -18.03125 L 0.328125 -18.03125 C 0.109375 -18.03125 0 -18.140625 0 -18.359375 C 0 -18.566406 0.4375 -18.734375 1.3125 -18.859375 L 1.3125 -19.5 C 1.195312 -19.5 1.03125 -19.546875 0.8125 -19.640625 C 0.601562 -19.546875 0.441406 -19.5 0.328125 -19.5 C 0.222656 -19.707031 0.171875 -19.867188 0.171875 -19.984375 C 0.484375 -23.753906 1.890625 -27.546875 4.390625 -31.359375 C 5.347656 -32.660156 6.222656 -33.3125 7.015625 -33.3125 C 8.410156 -33.3125 9.109375 -33.476562 9.109375 -33.8125 C 8.753906 -34.03125 8.4375 -34.140625 8.15625 -34.140625 L 7.984375 -34.140625 L 7.15625 -33.984375 L 7.015625 -34.3125 L 7.15625 -34.625 C 6.726562 -34.625 6.515625 -34.734375 6.515625 -34.953125 C 7.328125 -35.660156 8.847656 -36.691406 11.078125 -38.046875 L 12.859375 -38.046875 C 15.765625 -39.785156 20 -40.65625 25.5625 -40.65625 Z M 12.046875 -20.3125 L 12.046875 -19.984375 L 13.03125 -19.328125 L 13.03125 -19 C 13.03125 -18.78125 12.914062 -18.671875 12.6875 -18.671875 L 11.890625 -18.671875 L 11.890625 -18.1875 L 14.8125 -18.1875 C 15 -18.1875 15.164062 -17.804688 15.3125 -17.046875 C 17.632812 -16.941406 19.367188 -16.890625 20.515625 -16.890625 L 21.796875 -16.890625 L 21.796875 -16.578125 C 21.796875 -16.335938 21.691406 -16.21875 21.484375 -16.21875 C 21.285156 -16.34375 21.125 -16.40625 21 -16.40625 C 20.882812 -16.40625 20.828125 -16.34375 20.828125 -16.21875 L 20.015625 -16.40625 C 19.617188 -16.40625 18.097656 -16.34375 15.453125 -16.21875 L 15.453125 -15.4375 C 15.984375 -12.769531 17.335938 -10.375 19.515625 -8.25 C 20.722656 -7.425781 21.328125 -6.9375 21.328125 -6.78125 L 21 -6.640625 L 18.734375 -6.640625 L 18.875 -6.3125 L 18.875 -6.140625 L 17.90625 -6.140625 L 17.90625 -5.828125 L 19.875 -5.828125 C 21.800781 -5.273438 23.09375 -5 23.75 -5 C 24.382812 -5 25.421875 -5.164062 26.859375 -5.5 C 26.859375 -5.71875 26.75 -5.828125 26.53125 -5.828125 L 25.71875 -5.828125 L 25.71875 -6.140625 L 27.5 -6.140625 C 27.613281 -6.140625 28.375 -6.304688 29.78125 -6.640625 L 31.40625 -6.640625 C 31.65625 -6.640625 31.875 -6.6875 32.0625 -6.78125 C 32.269531 -6.6875 32.429688 -6.640625 32.546875 -6.640625 C 34.679688 -7.546875 36.582031 -9.550781 38.25 -12.65625 C 38.894531 -14.832031 39.21875 -16.082031 39.21875 -16.40625 L 39.21875 -17.71875 C 39.21875 -17.894531 38.679688 -18.050781 37.609375 -18.1875 L 37.28125 -18.03125 L 36.140625 -18.03125 C 35.691406 -18.03125 35.46875 -19.113281 35.46875 -21.28125 L 34.6875 -21.453125 L 29.125 -21.453125 L 29.125 -21.78125 C 30.757812 -21.875 31.957031 -21.921875 32.71875 -21.921875 L 35.15625 -21.921875 L 35.15625 -22.09375 C 34.125 -24.988281 32.492188 -27.210938 30.265625 -28.765625 C 27.804688 -30.285156 25.800781 -31.046875 24.25 -31.046875 C 19.707031 -31.046875 16.015625 -28.710938 13.171875 -24.046875 C 12.421875 -22.140625 12.046875 -20.894531 12.046875 -20.3125 Z M 0.8125 -16.890625 L 2.59375 -16.890625 C 2.8125 -16.859375 2.921875 -16.753906 2.921875 -16.578125 L 2.59375 -16.40625 L 0.8125 -16.40625 Z M 40.84375 -16.21875 L 40.703125 -15.90625 L 40.703125 -15.75 L 40.84375 -15.75 C 40.84375 -15.96875 40.953125 -16.078125 41.171875 -16.078125 L 41.171875 -16.21875 Z M 20.828125 -13.796875 L 21 -13.796875 C 21.21875 -13.765625 21.328125 -13.65625 21.328125 -13.46875 L 21.328125 -12.984375 C 21.328125 -12.765625 21.21875 -12.65625 21 -12.65625 L 20.828125 -12.65625 C 20.617188 -12.65625 20.515625 -12.765625 20.515625 -12.984375 L 20.515625 -13.46875 C 20.546875 -13.6875 20.648438 -13.796875 20.828125 -13.796875 Z M 1.78125 -12.015625 L 2.78125 -12.015625 L 2.921875 -11.203125 L 2.453125 -10.875 L 1.953125 -10.875 C 1.742188 -10.875 1.582031 -11.195312 1.46875 -11.84375 Z M 1.78125 -12.015625 "/></g></g><g transform="translate(275.225711, 53.163946)"><g><path d="M 5.625 -40.65625 C 6.695312 -40.65625 9.148438 -40.597656 12.984375 -40.484375 C 16.898438 -34.742188 19.078125 -31.785156 19.515625 -31.609375 C 19.953125 -31.609375 20.566406 -31.222656 21.359375 -30.453125 L 26.734375 -30.453125 C 26.941406 -30.410156 27.046875 -30.289062 27.046875 -30.09375 C 27.046875 -29.882812 26.941406 -29.78125 26.734375 -29.78125 L 26.203125 -29.78125 C 25.960938 -29.78125 25.742188 -29.828125 25.546875 -29.921875 C 25.359375 -29.828125 25.132812 -29.78125 24.875 -29.78125 C 24.625 -29.78125 24.398438 -29.828125 24.203125 -29.921875 L 23.21875 -29.78125 L 22.203125 -29.78125 L 21.875 -29.921875 L 21.703125 -29.609375 C 23.023438 -27.835938 26.257812 -23.203125 31.40625 -15.703125 L 30.5625 -15.359375 C 32.101562 -13.046875 33.113281 -11.707031 33.59375 -11.34375 L 33.765625 -12.1875 L 33.765625 -13.03125 C 33.765625 -13.6875 33.425781 -14.460938 32.75 -15.359375 C 33.3125 -15.472656 33.59375 -15.585938 33.59375 -15.703125 C 33.03125 -16.566406 32.75 -17.117188 32.75 -17.359375 C 32.96875 -17.472656 33.132812 -17.53125 33.25 -17.53125 C 32.914062 -17.945312 32.75 -18.335938 32.75 -18.703125 L 32.75 -27.59375 C 32.1875 -27.59375 31.90625 -27.644531 31.90625 -27.75 L 31.578125 -27.59375 C 31.347656 -27.59375 31.234375 -27.703125 31.234375 -27.921875 L 31.234375 -28.09375 C 31.265625 -28.320312 31.378906 -28.4375 31.578125 -28.4375 L 32.75 -28.4375 L 32.75 -31.4375 C 32.070312 -31.4375 31.734375 -31.550781 31.734375 -31.78125 L 31.734375 -40.15625 L 31.90625 -40.484375 C 34.132812 -40.597656 35.8125 -40.65625 36.9375 -40.65625 L 42.953125 -40.65625 C 43.066406 -40.65625 43.125 -40.597656 43.125 -40.484375 L 43.46875 -40.65625 C 43.6875 -40.625 43.796875 -40.507812 43.796875 -40.3125 L 43.796875 -31.609375 C 44.523438 -31.609375 44.921875 -31.441406 44.984375 -31.109375 L 44.984375 -28.765625 C 44.984375 -28.597656 44.8125 -28.429688 44.46875 -28.265625 L 43.46875 -28.265625 L 43.46875 -27.75 L 44.46875 -27.75 C 44.632812 -27.75 44.804688 -27.582031 44.984375 -27.25 L 44.984375 -15.859375 L 43.796875 -15.1875 L 43.796875 -8.671875 C 43.796875 -8.523438 43.46875 -8.300781 42.8125 -8 L 42.953125 -6.8125 L 42.953125 -2.796875 C 43.515625 -2.796875 43.796875 -2.691406 43.796875 -2.484375 L 43.796875 3.71875 L 43.96875 4.5625 L 43.625 4.734375 L 36.09375 4.734375 C 34.988281 4.734375 33.3125 4.675781 31.0625 4.5625 C 27.988281 -0.175781 26.207031 -2.628906 25.71875 -2.796875 C 25.207031 -2.796875 24.648438 -3.414062 24.046875 -4.65625 C 22.367188 -6.820312 21.53125 -8.046875 21.53125 -8.328125 L 22.015625 -8.328125 L 22.015625 -8.671875 L 17.34375 -15.359375 C 17.90625 -15.472656 18.1875 -15.585938 18.1875 -15.703125 L 15.828125 -19.046875 L 15.828125 -21.40625 C 15.828125 -22.03125 15.21875 -23.144531 14 -24.75 L 13.828125 -24.75 L 13.828125 -15.859375 L 12.828125 -15.1875 L 12.828125 -14.859375 L 14.671875 -14.859375 C 14.878906 -14.828125 14.984375 -14.710938 14.984375 -14.515625 L 14.984375 -14.015625 C 14.984375 -13.859375 14.816406 -13.695312 14.484375 -13.53125 L 12.828125 -13.53125 L 12.65625 -11.515625 L 12.65625 -6.484375 L 12.828125 -5.640625 C 12.566406 -5.429688 12.226562 -5.328125 11.8125 -5.328125 L 11.8125 -4.3125 L 12.65625 -3.640625 L 12.65625 2.0625 L 12.828125 3.046875 C 12.710938 3.242188 12.65625 3.46875 12.65625 3.71875 L 12.828125 4.5625 L 12.484375 4.734375 L 5.125 4.734375 C 4.164062 4.734375 2.65625 4.675781 0.59375 4.5625 L 0.421875 4.234375 L 0.421875 4.0625 C 0.421875 3.945312 0.476562 3.890625 0.59375 3.890625 L 0.421875 3.5625 L 0.421875 -3.640625 L -0.390625 -4.3125 L -0.390625 -4.984375 L 0.421875 -5.640625 L 0.421875 -13.171875 C 0.421875 -13.335938 0.59375 -13.515625 0.9375 -13.703125 L 2.421875 -13.703125 C 2.660156 -13.703125 2.78125 -13.804688 2.78125 -14.015625 L 2.78125 -14.515625 C 2.78125 -14.742188 2.660156 -14.859375 2.421875 -14.859375 L 0.765625 -14.859375 C 0.535156 -14.859375 0.421875 -14.96875 0.421875 -15.1875 C 0.453125 -15.414062 0.566406 -15.53125 0.765625 -15.53125 L 1.609375 -15.53125 L 1.609375 -15.859375 C 1.609375 -16.234375 1.660156 -16.515625 1.765625 -16.703125 L 1.609375 -17.53125 L 1.765625 -18.203125 C 1.765625 -18.316406 1.710938 -18.375 1.609375 -18.375 L 1.765625 -19.21875 L 1.765625 -19.546875 C 1.765625 -19.992188 1.710938 -20.21875 1.609375 -20.21875 L 1.765625 -21.40625 L 1.765625 -22.078125 C 1.765625 -23.523438 1.710938 -25.414062 1.609375 -27.75 L 1.765625 -28.09375 L 1.609375 -28.4375 C 1.710938 -29.332031 1.878906 -29.78125 2.109375 -29.78125 L 3.609375 -29.78125 C 4.390625 -29.78125 5.613281 -29.828125 7.28125 -29.921875 L 7.28125 -30.265625 L 7.140625 -30.265625 C 6.304688 -30.265625 5.6875 -30.328125 5.28125 -30.453125 C 4.550781 -30.328125 3.820312 -30.265625 3.09375 -30.265625 C 1.988281 -30.265625 1.4375 -30.65625 1.4375 -31.4375 C 0.757812 -31.4375 0.421875 -31.601562 0.421875 -31.9375 L 0.421875 -40.15625 L 0.59375 -40.484375 C 2.988281 -40.597656 4.664062 -40.65625 5.625 -40.65625 Z M -0.390625 -28.4375 L -0.078125 -28.4375 C 0.148438 -28.382812 0.265625 -28.269531 0.265625 -28.09375 C 0.265625 -27.84375 -0.0078125 -27.675781 -0.5625 -27.59375 L -0.75 -27.921875 L -0.75 -28.09375 C -0.707031 -28.320312 -0.585938 -28.4375 -0.390625 -28.4375 Z M 29.734375 -28.4375 L 29.90625 -28.4375 C 30.132812 -28.382812 30.25 -28.269531 30.25 -28.09375 L 30.25 -27.921875 C 30.25 -27.703125 30.132812 -27.59375 29.90625 -27.59375 C 29.738281 -27.59375 29.570312 -27.757812 29.40625 -28.09375 C 29.4375 -28.320312 29.546875 -28.4375 29.734375 -28.4375 Z M 33.90625 -16.703125 C 33.945312 -16.484375 34.066406 -16.375 34.265625 -16.375 L 34.265625 -16.703125 Z M 34.578125 -16.203125 L 34.578125 -15.859375 L 34.75 -15.859375 L 34.75 -16.203125 Z M 34.578125 -16.203125 "/></g></g><g transform="translate(320.983801, 53.163946)"><g><path d="M 5.640625 -40.71875 L 29.484375 -40.71875 C 29.628906 -40.71875 29.789062 -40.554688 29.96875 -40.234375 L 29.96875 -34.515625 C 29.96875 -34.359375 30.132812 -34.191406 30.46875 -34.015625 L 31.140625 -34.015625 C 31.398438 -34.015625 31.628906 -34.070312 31.828125 -34.1875 C 32.378906 -34.039062 32.65625 -33.875 32.65625 -33.6875 L 32.65625 -33.34375 C 32.65625 -33.125 32.546875 -33.015625 32.328125 -33.015625 L 31.484375 -33.015625 L 31.484375 -32.171875 C 31.484375 -31.941406 31.367188 -31.828125 31.140625 -31.828125 L 19.578125 -31.828125 C 18.398438 -31.828125 16.613281 -31.769531 14.21875 -31.65625 L 14.21875 -30.140625 C 14.25 -29.929688 14.359375 -29.828125 14.546875 -29.828125 L 16.046875 -29.828125 C 16.285156 -29.796875 16.40625 -29.679688 16.40625 -29.484375 L 16.40625 -22.265625 L 30.984375 -22.265625 C 31.203125 -22.234375 31.3125 -22.128906 31.3125 -21.953125 L 31.3125 -19.421875 C 31.3125 -19.203125 30.703125 -19.035156 29.484375 -18.921875 L 29.125 -19.09375 L 28.140625 -18.921875 C 27.910156 -19.035156 27.738281 -19.09375 27.625 -19.09375 L 27.453125 -18.25 L 27.453125 -15.40625 L 27.625 -13.71875 L 27.125 -13.375 L 12.859375 -13.375 C 12.859375 -13 12.46875 -12.773438 11.6875 -12.703125 L 10.671875 -12.875 L 10.359375 -12.875 C 10.128906 -12.84375 10.015625 -12.726562 10.015625 -12.53125 L 10.015625 -12.390625 L 11.03125 -12.390625 L 12.703125 -12.21875 L 12.703125 -6.65625 C 12.703125 -6.0625 13.035156 -5.734375 13.703125 -5.671875 C 13.703125 -5.421875 13.757812 -5.195312 13.875 -5 C 13.757812 -4.800781 13.703125 -4.578125 13.703125 -4.328125 L 13.703125 -4.15625 L 29.65625 -4.15625 C 29.863281 -4.15625 30.023438 -3.597656 30.140625 -2.484375 L 32.65625 -2.484375 C 32.882812 -2.441406 33 -2.332031 33 -2.15625 C 33 -1.925781 32.882812 -1.8125 32.65625 -1.8125 L 30.8125 -1.8125 L 29.96875 -1.640625 L 29.96875 4.734375 L 2.484375 4.734375 C 2.359375 4.734375 2.296875 4.675781 2.296875 4.5625 L 1.953125 4.734375 L 0.96875 4.734375 C 0.800781 4.734375 0.628906 4.566406 0.453125 4.234375 L 0.453125 3.890625 C 0.453125 3.773438 0.507812 3.71875 0.625 3.71875 L 0.453125 3.390625 L 0.453125 -0.640625 L -0.390625 -0.796875 L -1.875 -0.796875 C -2.113281 -0.796875 -2.234375 -0.910156 -2.234375 -1.140625 L -2.234375 -1.484375 C -2.203125 -1.703125 -2.082031 -1.8125 -1.875 -1.8125 C -0.0078125 -1.925781 1.441406 -1.984375 2.484375 -1.984375 L 3.140625 -1.984375 L 3.140625 -2.296875 L 1.46875 -2.484375 L 0.796875 -2.484375 C 0.566406 -2.484375 0.453125 -2.644531 0.453125 -2.96875 L 0.625 -3.3125 C 0.507812 -3.507812 0.453125 -3.734375 0.453125 -3.984375 C 0.453125 -4.140625 0.789062 -4.304688 1.46875 -4.484375 C 1.582031 -4.679688 1.640625 -4.910156 1.640625 -5.171875 C 1.640625 -5.648438 1.242188 -5.925781 0.453125 -6 L 0.453125 -11.71875 L 0.625 -12.046875 L 0.296875 -12.21875 L -1.875 -12.21875 C -2.113281 -12.21875 -2.234375 -12.320312 -2.234375 -12.53125 C -2.203125 -12.757812 -2.082031 -12.875 -1.875 -12.875 L 0.125 -12.875 C 0.34375 -12.875 0.453125 -12.992188 0.453125 -13.234375 L 0.453125 -18.75 C 0.453125 -18.976562 0.625 -19.09375 0.96875 -19.09375 C 1.3125 -19.09375 2.367188 -19.144531 4.140625 -19.25 L 4.140625 -29.484375 C 4.140625 -29.828125 3.523438 -30 2.296875 -30 L 1.953125 -30 L 1.953125 -32.671875 L 3.140625 -33.34375 L 3.140625 -33.6875 C 3.140625 -33.90625 3.023438 -34.015625 2.796875 -34.015625 L 0.796875 -34.015625 C 0.566406 -34.015625 0.453125 -34.128906 0.453125 -34.359375 L 0.453125 -40.234375 L 0.625 -40.546875 C 2.863281 -40.660156 4.535156 -40.71875 5.640625 -40.71875 Z M -0.71875 -20.59375 L 0.125 -20.59375 C 0.34375 -20.550781 0.453125 -20.441406 0.453125 -20.265625 L 0.453125 -19.421875 C 0.453125 -19.203125 0.34375 -19.09375 0.125 -19.09375 L -0.71875 -19.09375 C -0.945312 -19.09375 -1.0625 -19.203125 -1.0625 -19.421875 L -1.0625 -20.265625 C -1.007812 -20.484375 -0.894531 -20.59375 -0.71875 -20.59375 Z M 5.328125 -1.984375 L 6.84375 -1.984375 L 6.84375 -2.296875 L 5.640625 -2.296875 C 5.429688 -2.265625 5.328125 -2.160156 5.328125 -1.984375 Z M 23.4375 -1.8125 L 23.4375 -1.140625 C 23.46875 -0.910156 23.582031 -0.796875 23.78125 -0.796875 L 26.109375 -0.796875 C 26.109375 -0.921875 26.164062 -1.09375 26.28125 -1.3125 C 26.164062 -1.53125 26.109375 -1.695312 26.109375 -1.8125 Z M 23.4375 -1.8125 "/></g></g></g></svg>